<?xml version="1.0" encoding="utf-8"?>
<!-- Generator: Adobe Illustrator 24.2.0, SVG Export Plug-In . SVG Version: 6.00 Build 0)  -->
<svg version="1.1" id="Layer_1" xmlns="http://www.w3.org/2000/svg" xmlns:xlink="http://www.w3.org/1999/xlink" x="0px" y="0px"
	 viewBox="0 0 538.3 119.5" style="enable-background:new 0 0 538.3 119.5;" xml:space="preserve">
<g>
	<g>
		<path d="M239.5,119.4c0-0.6,0-1.2,0-1.8c0-38.2,0-76.3,0-114.5c0-2.9,0-2.9,2.8-2.9c97.8,0,195.6,0,293.3,0c0.8,0,1.5,0,2.3,0
			c0.1,0.2,0.2,0.3,0.2,0.5c-0.6,0.6-1.1,1.3-1.7,1.9c-38.3,38.2-76.7,76.5-115,114.7c-0.7,0.7-1.3,1.4-1.9,2.1c-0.2,0-0.5,0-0.7,0
			c0-0.9-0.1-1.8-0.1-2.7c0-37.5,0-75.1,0-112.6c0-0.7,0-1.5,0-2.2c-0.8,0.5-1.1,1.2-1.4,1.8c-15.4,30.7-30.8,61.4-46.2,92.1
			c-4,7.9-7.9,15.8-11.9,23.6c-0.2,0-0.5,0-0.7,0c-0.3-0.7-0.5-1.3-0.8-2c-19-38-38.1-76-57.2-114.1c-0.3-0.5-0.6-1-0.8-1.5
			c-0.1,0-0.2,0.1-0.4,0.1c0,39.1,0,78.3,0,117.4C279.4,119.4,259.4,119.4,239.5,119.4z"/>
		<path d="M0.2,119.1c0.4-0.8,0.9-1.5,1.3-2.3c19.1-38,38.1-76,57.2-114.1C59.1,2,59.5,1.3,60.1,0c19.8,39.6,39.4,78.7,59.1,117.8
			c0.2,0,0.3-0.1,0.5-0.1c0-38.9,0-77.8,0-116.7c0.2-0.1,0.3-0.1,0.5-0.2c0.5,0.4,1,0.8,1.4,1.2c38.8,38.7,77.6,77.4,116.4,116.1
			c0.4,0.4,0.7,0.9,1.1,1.4c-79.1,0-158.2,0-237.3,0C1.3,119.4,0.8,119.2,0.2,119.1z"/>
	</g>
</g>
</svg>
