<?xml version="1.0" encoding="utf-8"?>
<!-- Generator: Adobe Illustrator 24.2.0, SVG Export Plug-In . SVG Version: 6.00 Build 0)  -->
<svg version="1.1" id="Layer_1" xmlns="http://www.w3.org/2000/svg" xmlns:xlink="http://www.w3.org/1999/xlink" x="0px" y="0px"
	 viewBox="0 0 548.6 110.7" style="enable-background:new 0 0 548.6 110.7;" xml:space="preserve">
<g>
	<g>
		<path d="M102.1,110.5c-1-1.7-0.3-5.2,1.3-6.3c1-0.7,2.1-0.7,3.3-0.4c0.4,0.1,0.8,0.3,1.2,0.5c1,0.4,1.7,0.2,2.3-0.7
			c1.5-2.2,2.1-4.6,1.3-7.3c-1-3.4-2.6-6.5-5-9.2c-1.6-1.8-3.8-2.2-6.1-2.4c-2.1-0.2-4.2-0.3-6.1-0.9c-3.2-1-6-2.8-8.3-5.2
			c-1.6-1.6-3.1-3.4-4.8-5c-1.4-1.3-2.3-2.7-2.9-4.5c-0.5-1.5-1.6-2.9-2.4-4.3c-0.2-0.3-0.5-0.4-0.8-0.5c0.2,1.5,1.2,2.9,0.3,4.4
			h-0.1c-3.3-1.8-6.9-2-10.6-1.8c-4.9,0.3-9.4,1.7-13.8,3.7c-1.6,0.7-3.3,1.2-5,1.7c-0.8,0.2-1.5,0-2.2-0.5c2-1.8,2.9-3.9,2.6-6
			c-2.2,0.2-4.3-0.3-6-1.8c-1.2-1.1-2.1-2.4-2.6-4c6.1,0.4,9.9-2.8,12.5-7.7c-1.5-0.2-2.9-0.3-4.3-0.6c-1.6-0.3-2.8-1.3-3.6-2.7
			c-0.1-0.2-0.1-0.5,0-0.7c0.2-0.9,0.5-1.7,0.5-2.6c-0.2-3.8-2.2-7.1-6.2-7.8c-2.7-0.5-5.4,0.5-6.6,2.6c-0.1,0.1-0.1,0.2-0.1,0.2
			c1.3-0.4,2.6-1,4-1.2c3-0.5,5.3,1.1,6.2,3.7c0.6,1.8,0.5,3.8-0.4,5.6c-0.1,0.2-0.2,0.4-0.1,0.6c1.1,2.2,2.6,4,5.1,4.5
			c0.7,0.1,1.4,0.1,2.2,0.2c-0.3,0.3-0.5,0.6-0.8,0.9c-2,1.8-4.5,2.6-7.2,2.9c-1.3,0.1-2.7,0-4.2,0c0.1,2.7,1,4.9,2.8,6.8
			c1.8,1.8,4,2.9,6.6,3.6c-0.5,0.6-0.9,1.1-1.4,1.5c-1.6,1.3-3.6,1.8-5.6,2.2c-0.3,0.1-0.6,0.1-1.1,0.2c0.2,0.2,0.4,0.3,0.6,0.5
			c0.7,0.7,1.5,1.4,2,2.3c0.8,1.2,0.8,2.5-0.1,3.8c-0.5,0.8-0.4,1,0.4,1.4c1,0.5,1.2,0.8,0.8,1.9c-0.4,1-1,2-1.4,3
			c-0.3,0.9-0.6,1.8-0.7,2.7c-0.2,1,0.2,1.8,1,2.4c1.3,0.9,1,1.5,0.1,2.3c-1.8,1.6-3,3.6-4,5.7c-0.4,0.9-0.5,1.8-0.4,2.8
			c0,1-0.4,1.9-0.6,2.8c-0.6-0.5-1.2-0.9-1.8-1.3c-0.3,1.1-0.4,2.1-0.7,3c-0.8,3-2.1,4.2-5.2,4.5c-2.5,0.2-5,0.2-7.6,0.3
			c-0.8,0-1.7,0.1-2.5,0.1c-0.6,0-1.2-0.2-1.3-0.9c-0.3-2.2-0.3-4.3,1.5-6c1-1,2.2-1,3.4-0.8c0.7,0.1,1.5,0.4,2.2,0.4
			c0.6,0,1.2-0.1,1.7-0.4s0.9-0.7,1.3-1.2c2.3-3.3,4.2-6.8,4.7-10.8c0.3-2.5,0.1-5.1-0.4-7.5c-0.9-4.3-1.9-8.6-2.8-13
			c-1.1-5.2-1.1-10.4,0.1-15.6c0-0.1,0-0.2,0-0.3c-0.1,0-0.1-0.1-0.2-0.1c-0.6,1-1.2,2-1.7,3c-1.4,3.2-1.6,6.6-1.4,10
			c0.3,3.1,0.9,6.2,1.7,9.2c0,0.1,0,0.2,0.1,0.5c-0.8-0.7-1.5-1.3-2.1-1.9c-4.8-4.4-8.4-9.6-10.4-15.9c-1-3.2-1.5-6.6-1.1-9.9
			c0.4-3.8,2.1-7,4.3-10.1c1.7-2.3,3.6-4.3,5.8-6.1c0.1-0.1,0.3-0.2,0.4-0.4c0-0.1,0-0.2,0-0.2c-1.3,0-2.6,0-3.9,0
			c-2.6,0-5.2-0.1-7.8,0.4c-0.5,0.1-0.9,0.3-1.4,0.4c-0.8,0.2-1.4-0.1-1.6-1c-0.4-1.6,0-3.1,0.8-4.5C8.2,27,9,26.8,9.7,26.9
			c1.6,0.2,3.1,0.5,4.7,0.7c0.1,0,0.2,0,0.3,0c1.8,0.1,2.5-0.4,2.5-2.2c0.1-2.8-1.3-5.5-5-6c-1.5-0.2-3.1-0.1-4.6-0.2
			c-0.6,0-1.3,0-1.9,0c-1-0.1-1.7-0.5-2.1-1.5c-0.6-1.4-0.8-2.8-0.5-4.3c0.1-0.3,0.1-0.6,0.2-0.8c0.6-2.3,1.1-2.8,3.6-2.7
			c1.2,0,2.3,0.2,3.5,0.4c2.4,0.4,4.6,0,6.6-1.3c0.4-0.3,0.7-0.5,1.1-0.8c1.4-1,3-1.4,4.7-0.7c2.5,1,5.1,1.1,7.7,1.2
			c0.1,0,0.3,0,0.5,0c0-1.9,0-3.8,0-5.8c2.3,0,4.3-0.5,5.5-2.9c1.1,2,1.6,3.9,0.7,5.9c-1,2.3-3.2,2.6-5.4,2.8c0.5,0,0.9,0.1,1.4,0.1
			s0.9-0.1,1.4-0.1c1.6,0,2.8-0.9,3.9-2c0.4-0.4,0.7-0.6,1.3-0.4c3,1,6.1,0.8,9.1-0.2c0.9-0.3,1.7-1,2.6-1.5
			c0.4-0.3,0.7-0.2,0.7,0.4c0.2,3.8-2.8,7.8-5.3,8.5c-0.5,0.2-1.1,0.3-1.7,0.5c0.2,0.3,0.3,0.7,0.5,0.9c0.6,0.7,1.2,1.4,1.9,1.9
			c1.2,0.8,1.9,1.8,2.2,3.1c0.7,2.5,0.8,5,0.4,7.6c-0.4-0.5-0.8-1-1.3-1.4c-0.5-0.5-1.1-1-1.7-1.4c-0.7-0.5-1.2-0.3-1.6,0.4
			c-0.1,0.1-0.1,0.2-0.1,0.2c-0.6,1.2-0.6,1.3,0.6,1.9c1.1,0.6,2.2,1.1,3.4,1.1c0.8,0,1.4,0.5,1.7,1.2c0.5,1.2,1.1,2.5,1.3,3.8
			c0.4,1.9,0.6,3.9,0.8,5.8c-0.1,0-0.2,0-0.2,0.1c-0.3-0.4-0.6-0.9-1-1.3c-1.1-1.2-2.1-2.4-3.2-3.5c-0.5-0.5-1.2-1.1-2-0.7
			s-0.8,1.3-0.9,2c-0.3,4.3,2,7.2,5.3,9.5c2.6,1.8,5.6,2.3,8.7,2.6c5.4,0.4,10.6-0.4,15.9-1.4c3.6-0.7,7.3-1.5,10.9-2.1
			c3.8-0.6,7.6-0.8,11.3,0.2c1.2,0.3,2.3,1.1,3.4,1.6c0.2,0.1,0.3,0.2,0.5,0.2c1.5-0.3,3-0.4,4.4-0.9c4.1-1.3,6.8-4.1,7.5-8.5
			c0.4-2.4-0.4-4.4-2.2-6c-2.9-2.5-6.2-2.8-9.7-2c-2,0.4-3.8,1.5-5.4,2.6c-2.8,1.9-5.8,3.7-9.1,4.7c-3.5,1-7,1.4-10.4,0.2
			c-4.2-1.5-7.7-3.9-8.8-8.6c-0.7-3,0.1-5.9,1.5-8.5c0.8-1.5,1.7-2.9,3-3.9c0.5-0.4,0.8-1.1,1.1-1.7c0.4-0.7,0.7-1.3,1.1-2
			c1.7-3.2,5.6-4.9,9.3-3.8c1.4,0.4,2.8,0.8,4.2,1.3c1.9,0.7,3.5,0.2,4.9-1.3c0.3-0.4,0.7-0.7,1.1-1.3c-0.1,0.5-0.1,0.8-0.2,1.1
			c-0.6,2.1-1.3,4.1-3,5.6c-1,0.9-2.2,1.3-3.5,1.6c-0.5,0.1-1,0.2-1.5,0.4c-0.6,0.2-1,0.6-1.3,1.2c-0.9,2-2.6,3-4.6,3.4
			c-0.7,0.1-1.3,0.2-2,0.2c-2.1,0.1-3.9,1.1-5.5,2.5c-1.2,1-1.4,2.1-0.8,3.5c1,2.6,2.5,4.8,5.1,6c2.3,1.1,4.6,1,7,0.6
			c4.1-0.8,7.7-2.7,11-5c3.6-2.5,7.7-3.2,12-2.9c2.4,0.2,4.7,0.9,6.7,2.4c2.4,1.8,3.7,4.3,3.9,7.3c0.7,9.1-3.3,15.9-10.5,21.2
			c-0.3,0.2-0.5,0.6-0.5,0.9c0.2,4.6,0.4,9.2,0.8,13.7c0.3,3.1,1.4,6.1,3.5,8.5c0.9,1.1,2,2,3.1,2.9c0.5,0.4,1.4,0.6,2.1,0.6
			c1.4,0.1,2.4,0.7,3,2c0.4,0.8,0.7,1.7,1.1,2.5c-0.9,0.4-1.7,0.8-2.4,1.2c-1.1,0.6-1.3,1-1,2.3c0.6,2.3,1.4,4.5,2.1,6.7
			c0.6,1.8,0.8,3.7,0.6,5.7c-0.5-0.3-0.9-0.5-1.3-0.8c-0.7-0.3-0.8-0.2-0.8,0.5c0,1.6,0,3.1-0.1,4.7c0,0.6-0.3,1.1-0.6,1.6
			c-0.4,0.7-1,1-1.9,1.1c-3.4,0.2-6.9,0.5-10.3,0.8c-0.1,0-0.2,0.1-0.3,0.1C103.1,110.5,102.6,110.5,102.1,110.5z M20.4,14.6
			c0.3,0,0.7,0.1,1,0.1c1.2-0.1,2.2,0.4,2.9,1.4c0.4,0.6,1,0.8,1.7,0.7c1-0.1,1.9-0.2,2.9-0.4c1.1-0.2,1.8-1.1,1.9-2.1
			c-0.1,0-0.3-0.1-0.4-0.1c-2.3-0.3-4.5-0.5-6.8-0.9C22.3,13.1,21.4,13.9,20.4,14.6z"/>
		<path d="M548.6,19.4c-0.5,0.9-1,1.9-1.5,2.8c-2.9,5.7-5.8,11.4-8.7,17.1c-0.2,0.3-0.3,0.8-0.3,1.1c0,4.3,0,8.6,0,12.9
			c0,0.3,0,0.6,0,0.9c-1.8,0-3.5,0-5.3,0c0-0.3,0-0.6,0-0.8c0-4.3,0-8.5,0-12.8c0-0.5-0.1-0.9-0.3-1.4c-3.2-6.4-6.5-12.8-9.7-19.2
			c-0.1-0.2-0.2-0.5-0.4-0.8c1.9,0,3.7,0,5.5,0c0.2,0,0.4,0.4,0.6,0.6c2,4.3,4.1,8.5,6.1,12.8c0.3,0.6,0.6,1.2,0.9,1.9
			c0.2-0.4,0.4-0.8,0.5-1.1c2.2-4.6,4.4-9.1,6.5-13.7c0.2-0.4,0.4-0.5,0.9-0.5c1.7,0,3.5,0,5.2,0C548.6,19.3,548.6,19.4,548.6,19.4z
			"/>
		<path d="M80.7,104.7c-0.7-0.7-1.5-1.3-2.4-2.1c-0.2,1.2-0.4,2.2-0.6,3.2c-0.4,2.6-2.5,4.1-5,4c-3.4-0.1-6.9,0.1-10.3,0.2
			c-1.2,0-2-0.7-2-1.9c0-0.4,0-0.9,0.2-1.3c1.4-3.4,4.3-5.3,8.2-4.2c0.4,0.1,0.9,0,1.3-0.1c0.4-0.1,0.8-0.3,1.2-0.5
			c2.7-1.2,3.6-3,3.2-6.5c-0.3-2.4-1.7-4-3.5-5.4c-1.2-0.9-2.3-1.9-3.5-2.8c-2.8-2-3.4-7.9,0.2-10.7c0.5-0.4,1.1-0.8,1.7-1.2
			c-2.7,0.4-5.2,0.8-7.8,1.2c-4,0.6-7.9,1.2-11.9,1.7s-7.4-0.9-10.1-4c-0.4-0.5-0.4-0.9,0.1-1.3c0.8-0.7,1.6-0.7,2.2,0.1
			c1.6,2,3.3,2.6,5.7,1.7c2.1-0.7,4.1-1.7,6.2-2.5c4.7-2,9.6-2.8,14.7-2.5c3.4,0.2,6.2,1.6,8.6,3.8c2.1,2,3.9,4.1,6,6.1
			c1.1,1.1,2.3,2.1,3.5,3.2c0.4,0.3,0.4,0.5,0.3,1c-0.3,1.6-1.2,2.6-2.5,3.4c-0.3,0.2-0.5,0.4-0.7,0.6c-0.6,0.6-0.7,1.2-0.2,1.8
			c0.5,0.7,1.2,1.2,2,1.7c0.7,0.4,0.9,0.7,0.5,1.3c-0.2,0.4-0.6,0.7-0.9,1c-0.3,0.2-0.7,0.4-1,0.5c-2.6,1.2-3.8,3.5-3.4,6.4
			c0.1,1.1,0.2,2.2,0.2,3.3C80.9,104.3,80.7,104.6,80.7,104.7z"/>
		<path d="M224.4,19.3c1.7,0,3.3,0,4.9,0c0.2,0,0.5,0.3,0.6,0.5c3.2,6.7,6.3,13.4,9.4,20.1c0.2,0.3,0.3,0.6,0.5,1.1
			c0.6-1.2,1.1-2.4,1.6-3.5c2.7-5.9,5.4-11.7,8.1-17.6c0.2-0.5,0.5-0.7,1-0.6c1.5,0,3,0,4.6,0c0,11.7,0,23.3,0,35
			c-1.8,0-3.5,0-5.3,0c0-7.7,0-15.3,0-22.9h-0.1c-0.1,0.1-0.2,0.3-0.3,0.4c-2.4,5.2-4.9,10.3-7.3,15.5c-0.2,0.5-0.5,0.8-1.1,0.7
			c-0.9-0.1-1.7,0-2.6,0c-0.5,0-0.7-0.1-0.9-0.6c-2.5-5.2-5-10.4-7.5-15.5c-0.1-0.2-0.2-0.4-0.4-0.5c0,7.6,0,15.3,0,23
			c-1.8,0-3.5,0-5.3,0C224.4,42.6,224.4,31,224.4,19.3z"/>
		<path d="M404.9,19.3c1.7,0,3.3,0,4.9,0c0.2,0,0.5,0.3,0.6,0.5c2.7,5.8,5.4,11.5,8.1,17.3c0.6,1.2,1.2,2.5,1.8,3.8
			c0.3-0.5,0.5-0.9,0.7-1.4c3-6.6,6-13.1,9-19.7c0.2-0.5,0.5-0.7,1-0.6c1.5,0,3,0,4.6,0c0,11.7,0,23.3,0,35c-1.7,0-3.5,0-5.3,0
			c0-7.7,0-15.3,0-22.9c-0.1,0-0.1,0-0.2-0.1c-0.1,0.2-0.2,0.4-0.3,0.6c-2.4,5.1-4.9,10.3-7.3,15.4c-0.2,0.5-0.4,0.6-1,0.6
			c-0.9,0-1.8,0-2.6,0c-0.5,0-0.8-0.1-1-0.6c-2.4-5.1-4.9-10.2-7.4-15.3c-0.1-0.3-0.2-0.5-0.5-0.7c0,7.6,0,15.3,0,22.9
			c-1.8,0-3.5,0-5.3,0C404.9,42.6,404.9,31,404.9,19.3z"/>
		<path d="M148.1,19.3c0.3,0,0.6,0,0.8,0c4.4,0,8.9,0,13.3,0c1.8,0,3.5,0.3,5.1,1.1c2.6,1.3,4.2,3.4,4.7,6.2
			c0.5,2.9,0.1,5.6-1.9,7.8c-0.7,0.7-1.5,1.3-2.3,1.9c0,0,0.1,0.1,0.2,0.1c3.2,1.6,4.7,4.3,4.7,7.9c0,3.8-1.4,6.8-4.8,8.7
			c-1.6,0.9-3.5,1.2-5.3,1.3c-4.7,0-9.3,0-14,0c-0.2,0-0.3,0-0.5,0C148.1,42.6,148.1,31,148.1,19.3z M153.4,49.4c3.2,0,6.3,0,9.5,0
			c1.1,0,2.1-0.5,2.9-1.2c1.6-1.5,2.1-3.9,1.3-6.1c-0.7-1.9-2.5-3.2-4.8-3.2c-2.6,0-5.2,0-7.9,0c-0.3,0-0.7,0-1.1,0
			C153.4,42.4,153.4,45.9,153.4,49.4z M153.5,24c0,3.4,0,6.7,0,10c3,0,6,0.1,9,0c2-0.1,3.7-1.1,4.2-3.2c0.9-3.4-0.5-6.2-4.3-6.6
			c-2.6-0.3-5.3-0.1-7.9-0.1C154.1,24,153.8,24,153.5,24z"/>
		<path d="M276.8,19.3c1.5,0,3,0,4.5,0c0.2,0,0.5,0.2,0.6,0.5c5.1,7.7,10.2,15.5,15.3,23.3c0.1,0.2,0.3,0.4,0.5,0.7
			c0-8.3,0-16.3,0-24.4c1.8,0,3.5,0,5.3,0c0,11.6,0,23.2,0,35c-0.8,0-1.7-0.1-2.6,0c-1.7,0.2-2.6-0.4-3.5-1.8
			c-4.7-7.4-9.5-14.6-14.3-21.9c-0.1-0.2-0.3-0.4-0.6-0.8c0,8.3,0,16.4,0,24.5c-1.8,0-3.5,0-5.2,0C276.8,42.6,276.8,31,276.8,19.3z"
			/>
		<path d="M193.2,19.3c0.7,0,1.3,0,1.9,0c4,0,8.1-0.1,12.1,0c3.8,0.1,7,1.5,9,5c2.5,4.4,2.1,11.8-5.2,14.4c-0.1,0-0.2,0.1-0.4,0.2
			c2.7,5.1,5.3,10.3,8,15.5c-2,0-3.9,0-5.9,0c-0.2,0-0.5-0.3-0.6-0.6c-2.2-4.4-4.5-8.9-6.7-13.3c-0.3-0.7-0.7-0.9-1.4-0.8
			c-1.9,0.1-3.7,0-5.6,0c0,4.9,0,9.8,0,14.7c-1.8,0-3.5,0-5.2,0C193.2,42.6,193.2,31,193.2,19.3z M198.5,35c2.9,0,5.7,0.1,8.6,0
			c3.1-0.2,5.1-2.2,5.2-5.1c0.1-3.3-1.7-5.5-4.9-5.7c-2.9-0.2-5.8-0.1-8.7-0.1c0,0-0.1,0-0.1,0.1C198.5,27.7,198.5,31.3,198.5,35z"
			/>
		<path d="M329.9,39.9c-2.5,0-4.9,0-7.4,0c0-1.5,0-3,0-4.5c4.2,0,8.5,0,12.7,0c0,0.2,0.1,0.3,0,0.4c-0.1,2.7,0,5.5-0.3,8.2
			c-0.5,5.8-5.1,9.7-10.3,10.4c-3.9,0.5-7.4-0.2-10.5-2.8c-2.7-2.2-4-5.2-4.1-8.6c-0.1-4.2-0.2-8.4,0-12.6c0.3-8,7.1-11.9,13.1-11.5
			c4.2,0.3,7.6,1.9,9.9,5.4c1,1.5,1.6,3.3,2,5.1c0,0.1,0,0.2,0,0.4c-1.8,0-3.5,0-5.3,0c-0.2-0.6-0.4-1.3-0.7-2
			c-1.3-2.8-3.6-4.2-6.7-4.1c-2.9,0-5.1,1.3-6.3,4c-0.7,1.6-0.8,3.3-0.8,5c0,3.4,0,6.8,0.2,10.2c0.1,2.3,0.9,4.3,2.9,5.6
			c2.4,1.6,5,1.6,7.6,0.4c2.5-1.2,3.7-3.3,3.9-6.1C330,41.9,329.9,41,329.9,39.9z"/>
		<path d="M361.6,34.2c0-4.9,0-9.9,0-14.8c1.8,0,3.5,0,5.3,0c0,11.6,0,23.2,0,34.9c-1.7,0-3.4,0-5.2,0c0-5,0-10.1,0-15.2
			c-4.8,0-9.5,0-14.2,0c0,5,0,10.1,0,15.2c-1.8,0-3.5,0-5.3,0c0-11.6,0-23.2,0-34.9c1.7,0,3.5,0,5.3,0c0,0.3,0,0.6,0,0.9
			c0,4.4,0,8.9,0,13.3c0,0.4,0,0.7,0.6,0.7c4.4,0,8.8,0,13.1,0C361.3,34.2,361.4,34.2,361.6,34.2z"/>
		<path d="M400.8,54.3c-1.9,0-3.8,0-5.7,0c-0.7-2-1.3-3.9-2-5.9c-0.5-1.4-0.1-1.1-1.5-1.1c-4,0-8,0-11.9,0c-0.5,0-0.7,0.1-0.9,0.6
			c-0.6,1.9-1.3,3.9-2,5.8c-0.2,0.5-0.4,0.6-0.9,0.6c-1.6,0-3.3,0-5,0c0.1-0.3,0.2-0.5,0.2-0.7c4.1-11.2,8.2-22.4,12.3-33.5
			c0.2-0.6,0.5-0.8,1.1-0.8c0.9,0.1,1.9,0,2.8,0c0.5,0,0.8,0.2,1,0.7c2.5,6.9,5,13.7,7.5,20.6c1.6,4.4,3.2,8.7,4.8,13.1
			C400.6,53.8,400.7,54,400.8,54.3z M386.1,27.4c-0.1,0-0.1,0-0.2,0c-1.8,5.1-3.6,10.1-5.3,15.3c3.6,0,7.1,0,10.7,0
			C389.5,37.6,387.8,32.5,386.1,27.4z"/>
		<path d="M478.3,29.7c-1.7,0-3.4,0-5,0c-0.2,0-0.4-0.3-0.4-0.5c-0.4-1.4-1.1-2.6-2.1-3.6c-2-2-4.4-2.2-7-1.5
			c-2.4,0.7-4.1,2.3-4.6,4.8c-0.3,1.8-0.5,3.6-0.5,5.4c0,3.2,0,6.4,0.3,9.5c0.3,3.8,3.2,5.6,5.7,5.9c3.6,0.5,6.3-1,7.7-4.3
			c0-0.1,0.1-0.2,0.1-0.3c0.5-1.4,0.5-1.4,2.1-1.4c1.2,0,2.4,0,3.7,0c-0.3,1.9-0.9,3.6-1.8,5.2c-2.1,3.4-5.2,5.2-9.2,5.5
			c-4.6,0.4-8.5-1-11.4-4.5c-1.7-2-2.4-4.4-2.4-6.9c-0.1-4.2-0.2-8.3,0-12.5c0.3-8.1,7.1-11.9,13.1-11.6c4.1,0.2,7.4,1.8,9.8,5.3
			C477.3,25.8,478.2,28.2,478.3,29.7z"/>
		<path d="M152.5,67.1c0,0.3,0,0.6,0,0.9c0,6.1,0,12.2,0,18.3c0,0.7,0.1,1.4,0.2,2.1c0.5,2.4,2.1,3.9,4.5,4.4
			c2.9,0.6,5.6-0.5,6.8-2.9c0.6-1.1,0.7-2.2,0.7-3.4c0-6.2,0-12.4,0-18.6c0-0.3,0-0.6,0-0.9c1.5,0,3,0,4.5,0c0,0.3,0,0.6,0,0.9
			c0,6.2,0,12.4,0,18.6c0,6-4.2,10.3-10.3,10.5c-3.3,0.1-6.3-0.9-8.6-3.5c-1.6-1.8-2.4-3.9-2.4-6.3c0-6.6,0-13.2,0-19.8
			c0-0.1,0-0.2,0-0.3C149.5,67.1,150.9,67.1,152.5,67.1z"/>
		<path d="M519.3,19.3c0,1.6,0,3.1,0,4.7c-1.6,0-3.2,0-4.8,0s-3.1,0-4.8,0c0,10.1,0,20.2,0,30.2c-1.8,0-3.5,0-5.3,0
			c0-10,0-20.1,0-30.2c-3.2,0-6.4,0-9.6,0c0-1.6,0-3.2,0-4.7C503,19.3,511.1,19.3,519.3,19.3z"/>
		<path d="M247,87.4c-4.7,0-9.2,0-13.7,0c-0.4,1.8,0.6,4.1,2.2,5.1c2.2,1.4,5.2,0.9,8.2-1.3c0.9,0.8,1.8,1.6,2.7,2.5
			c-1.5,1.7-3.3,2.8-5.5,3.1c-2,0.3-3.9,0.3-5.9-0.3c-2.6-0.8-4.4-2.6-5.2-5.1c-1.2-3.5-1.2-7,0-10.5c1.4-3.9,5-6,9.2-5.5
			c4.3,0.5,7.2,3.5,7.8,8.1C246.9,84.7,246.9,86,247,87.4z M242.6,84.4c0-2.1-0.5-3.9-2.4-4.9c-1.7-1-3.5-0.9-5.1,0.2
			s-2.1,2.8-2,4.7C236.4,84.4,239.4,84.4,242.6,84.4z"/>
		<path d="M318,105.1c0-1.2,0-2.5,0-3.7c0.6,0,1.2-0.1,1.8-0.1c0.9-0.1,1.6-0.5,1.9-1.3c0.5-1.3,1-2.6,1.5-3.9
			c0.1-0.2-0.1-0.6-0.2-0.9c-2.3-6.3-4.6-12.5-6.9-18.8c-0.1-0.2-0.1-0.4-0.2-0.7c1.4,0,2.8,0,4.2,0c0.2,0,0.4,0.4,0.5,0.6
			c1.1,3.1,2.1,6.2,3.1,9.2c0.5,1.6,1.1,3.1,1.8,4.8c1.6-4.9,3.2-9.7,4.8-14.6c1.5,0,3,0,4.5,0c-0.1,0.2-0.1,0.5-0.2,0.7
			c-3,8.2-6,16.5-9.1,24.7c-1.1,2.9-2.6,4-5.7,4.2c-0.5,0-1.1,0-1.6,0C318.2,105.1,318.1,105.1,318,105.1z"/>
		<path d="M180.4,96.7c-1.5,0-2.8,0-4.2,0c0-7,0-14,0-21.1c1.3,0,2.7,0,4.1,0c0,0.6,0,1.2,0,1.9c0.2-0.1,0.3-0.2,0.4-0.2
			c2.3-2.1,6-2.7,8.8-1.3c2.7,1.3,3.8,3.6,3.8,6.5c0.1,4.6,0,9.2,0,13.8c0,0.1,0,0.2,0,0.4c-1.4,0-2.7,0-4.2,0c0-0.3,0-0.6,0-0.9
			c0-4,0-8.1,0-12.1c0-1.4-0.3-2.7-1.4-3.6c-1.5-1.2-3.1-1.3-4.8-0.5c-1.8,0.8-2.4,2.3-2.4,4.1c0,4,0,8.1,0,12.1
			C180.4,96.1,180.4,96.4,180.4,96.7z"/>
		<path d="M285.3,77.6c-1,1-1.9,1.8-2.9,2.7c-1.9-1.3-4.1-1.6-6.4-1.3c-0.3,0-0.7,0.1-1,0.3c-1.1,0.5-1.7,1.5-1.6,2.5
			c0.1,1.1,0.8,1.9,2.1,2c1.4,0.2,2.8,0.3,4.2,0.5c0.7,0.1,1.4,0.2,2.1,0.4c3.1,0.8,4.6,2.9,4.1,6.5c-0.3,2.9-2.5,4.9-5.7,5.5
			c-2.6,0.5-5.3,0.4-7.8-0.3c-1.5-0.4-3-1.3-4.1-2.5c0.5-0.4,1-0.9,1.4-1.3c0.5-0.5,0.9-0.9,1.3-1.4c2.3,2.2,5.1,2.5,8,2
			c0.4-0.1,0.8-0.2,1.1-0.4c1.3-0.6,1.8-1.5,1.6-2.8c-0.2-1.2-0.9-1.8-2.3-2s-2.8-0.2-4.3-0.4c-0.7-0.1-1.4-0.2-2.1-0.4
			c-2.8-0.9-3.9-2.9-3.7-5.8c0.2-2.9,2.1-5,5.3-5.7c2.8-0.6,5.6-0.4,8.3,0.7C283.8,76.6,284.5,77.1,285.3,77.6z"/>
		<path d="M185,19.3c0,11.7,0,23.3,0,34.9c-1.8,0-3.5,0-5.3,0c0-11.6,0-23.2,0-34.9C181.4,19.3,183.2,19.3,185,19.3z"/>
		<path d="M268.5,54.3c-1.8,0-3.4,0-5.2,0c0-11.6,0-23.3,0-34.9c1.7,0,3.4,0,5.2,0C268.5,30.9,268.5,42.6,268.5,54.3z"/>
		<path d="M489.6,54.3c-1.7,0-3.4,0-5.2,0c0-11.7,0-23.3,0-34.9c1.7,0,3.4,0,5.2,0C489.6,30.9,489.6,42.6,489.6,54.3z"/>
		<path d="M207.8,75.6c1.4,0,2.8,0,4.1,0c0.5,0,0.5,0.3,0.6,0.6c1.5,4.4,3,8.8,4.4,13.2c0.1,0.3,0.2,0.5,0.4,1
			c1.7-5,3.3-9.9,4.9-14.8c1.5,0,3,0,4.5,0c-0.7,1.8-1.3,3.6-2,5.3c-1.8,5-3.7,10.1-5.5,15.1c-0.2,0.5-0.4,0.7-1,0.7
			c-0.9-0.1-1.9,0-2.8,0C212.9,89.7,210.4,82.7,207.8,75.6z"/>
		<path d="M307.6,75.6c1.2,0,2.3,0,3.4,0c0.5,0,0.7,0.2,0.7,0.7c0,0.8,0,1.7,0,2.6c-1.4,0-2.7,0-4,0c0,0.3,0,0.6,0,0.8
			c0,3.5,0,7,0,10.5c0,0.2,0,0.4,0,0.6c0.1,1.3,0.8,2,2.2,2.1c0.6,0,1.2,0,1.8,0c0,1.2,0,2.4,0,3.6c-2.6,0.1-5.2,0.4-7.1-2.1
			c-0.9-1.2-1.2-2.5-1.2-4c0-3.5,0-7.1,0-10.6c0-0.3,0-0.6,0-1c-0.8,0-1.6,0-2.4,0c0-1.1,0-2.2,0-3.3c0.8,0,1.5,0,2.4,0
			c0-2.2,0-4.3,0-6.4c1.5,0,2.8,0,4.2,0C307.6,71.3,307.6,73.4,307.6,75.6z"/>
		<path d="M251.9,75.6c1.4,0,2.7,0,4.2,0c0,0.7,0,1.3,0,2.1c3.3-3.4,8.7-2.7,10.6-0.4c-1.1,1.1-2.1,2.1-3.2,3.2
			c-0.8-0.7-1.6-1.3-2.8-1.3c-2.6,0-4.5,1.6-4.5,4.2c-0.1,4,0,8.1,0,12.1c0,0.4,0,0.8,0,1.2c-1.4,0-2.8,0-4.2,0
			C251.9,89.7,251.9,82.7,251.9,75.6z"/>
		<path d="M18.3,74.1c1.5,1.6,2.9,3.3,4.6,4.6c2.1,1.6,2.8,3.8,3.5,6.1c1,3.7,0.3,7.3-1.4,10.7c-0.8,1.6-1.8,3-2.7,4.5
			c-0.1,0.2-0.4,0.4-0.6,0.6c-0.5,0.5-0.9,0.7-1.6,0.3c-0.7-0.4-1.6-0.5-2.4-0.8c0.3-0.3,0.8-0.6,1.2-1c1.8-1.6,3.1-3.6,3.2-6.1
			c0.1-2.1-0.4-4.2-1.5-5.9c-1.9-3-2.6-6.2-3.1-9.6C17.4,76.3,17.8,75.2,18.3,74.1z"/>
		<path d="M198.6,75.6c1.4,0,2.8,0,4.2,0c0,7,0,14,0,21.1c-1.4,0-2.8,0-4.2,0C198.6,89.7,198.6,82.7,198.6,75.6z"/>
		<path d="M295.1,96.7c-1.4,0-2.8,0-4.2,0c0-7,0-14,0-21.1c1.4,0,2.8,0,4.2,0C295.1,82.7,295.1,89.6,295.1,96.7z"/>
		<path d="M12,110.2c-2.5-0.1-4.8-0.2-7.2-0.3c0-1.9,0.7-3.5,2-4.7c2-1.8,4.5-2.4,7.4-2.8C11.5,104.5,10.6,107,12,110.2z"/>
		<path d="M13.4,22.7c-2.1-1.1-3.7,0.1-5.2,1.2c-0.9,0.7-2,1.4-3.1,1.7c-1.6,0.5-3.7-0.4-5.1-1.9c1,0.1,2,0.2,3,0.2
			c0.9,0,1.6-0.4,2.2-1c1.4-1.3,2.9-2.2,4.9-2C11.4,21,12.5,21.7,13.4,22.7z"/>
		<path d="M198.5,66.9c1.5,0,2.9,0,4.4,0c0,1.5,0,2.9,0,4.4c-1.5,0-2.9,0-4.4,0C198.5,69.9,198.5,68.4,198.5,66.9z"/>
		<path d="M290.8,71.4c0-1.4,0-2.7,0-4c0-0.1,0-0.3,0-0.5c1.5,0,2.9,0,4.5,0c0,1.5,0,2.9,0,4.4C293.8,71.4,292.3,71.4,290.8,71.4z"
			/>
	</g>
</g>
</svg>
