<?xml version="1.0" encoding="utf-8"?>
<!-- Generator: Adobe Illustrator 24.2.0, SVG Export Plug-In . SVG Version: 6.00 Build 0)  -->
<svg version="1.1" id="Layer_1" xmlns="http://www.w3.org/2000/svg" xmlns:xlink="http://www.w3.org/1999/xlink" x="0px" y="0px"
	 viewBox="0 0 579.3 160" style="enable-background:new 0 0 579.3 160;" xml:space="preserve">
<g>
	<g>
		<path d="M111.3,153.5c-1.3-3.2-2.4-6.5-3.8-9.7c-5-11.8-10.1-23.5-15.1-35.3c-0.5-1.2-0.4-2.7-0.2-4.1c0.5-4.3,1.1-8.5,1.6-12.8
			c0.1-0.8,0.4-1.1,1.1-1.3c11.2-3.1,21-8.7,29.8-16.2c0.2-0.2,0.5-0.3,0.9-0.5c-1.9-2.8-3.6-5.3-5.4-7.9c-0.3,0.2-0.6,0.4-0.9,0.5
			c-8.8,6.3-18.5,10.9-29.2,12.9c-9.8,1.8-19.4,0.5-28.7-2.9c-6.7-2.5-12.9-5.8-18.7-10c-0.2-0.2-0.5-0.3-0.8-0.5
			c-1.3,1.9-2.6,3.8-3.9,5.7c-1.5,2.1-1.5,2.2,0.5,3.8c8.4,6.9,17.7,12.2,28.3,15.1c0.9,0.3,1.4,0.6,1.5,1.7
			c0.5,5.2,1.2,10.5,1.8,15.7c0,0.4-0.2,0.9-0.4,1.3c-5.5,13-11.1,26-16.6,39.1c-0.9,2.1-1.6,4.2-2.4,6.3
			C23.3,144.6-1.2,114.8,0,77.7C1.3,35.4,34.6,3,74,0.2c43.9-3.1,79,28.3,85,67.2C165.5,109.7,139.1,142.5,111.3,153.5z M49.7,55.1
			c0.1-0.5,0.2-0.6,0.2-0.7c-0.5-5.8-3.4-10.1-8.7-12.7c-2.1-1.1-2.2-1-2.1-3.5c0-0.2,0-0.4,0-0.6c0.8-5.2,4.3-9.3,9.4-10.5
			c5.3-1.3,9.7,0.5,13.1,4.7c0.2,0.2,0.4,0.5,0.7,0.8c3.8-4.9,8.8-7.6,14.9-7.7c6.2-0.1,11.2,2.4,15.3,7c0-0.4,0-0.7-0.1-1.1
			C89.2,17.2,73.1,12,62.5,21.1c-0.8,0.7-1.4,0.7-2.3,0.3c-6.6-3.1-13.2-2.8-19.4,1.1c-6.1,3.9-9.1,9.6-9.2,16.8
			c0,0.7,0.1,1.3-1,1.6c-12.1,2.7-18.5,15.4-13.4,26.7c0.3,0.7,0.4,1.1-0.2,1.6c-5.5,5.4-7.6,11.9-6.4,19.5
			c1.6,9.9,10.4,18.5,21.4,18c7.8-0.4,13.5-3.9,17.1-10.8c0.1-0.2,0.1-0.4,0.2-0.9c-0.8,0.7-1.3,1.2-1.9,1.6
			c-3,2.3-6.5,3.4-10.2,3.6c-5.8,0.3-10.7-1.5-14.1-6.4c-1.7-2.5-2.6-5.3-2.9-8.3c-0.7-5.8,0.7-10.8,4.8-15.1
			c0.3-0.3,0.6-0.6,0.8-0.9C21.3,62.2,24.1,54.7,29,51c2.4-1.8,5.1-2.8,8.2-2.6C42.4,48.6,46.6,50.5,49.7,55.1z M101.8,33.3
			c2.8-0.7,5.5-0.9,8.3-0.3c5.9,1.3,10.5,4.2,12.6,10.2c1.3,3.7,1,7.5,0.2,11.2c-0.2,0.8,0,1.1,0.8,1.2
			c12.8,1.7,20.9,14.3,17.1,26.7c-0.1,0.4-0.2,0.8-0.3,1.2c0.2-0.1,0.3-0.1,0.4-0.1c0.1-0.1,0.2-0.1,0.3-0.2
			c5.5-5.3,7.7-11.8,6-19.3c-1.7-7.6-6.5-12.5-13.9-14.9c-0.7-0.2-1-0.5-1-1.3c-0.1-1.4-0.2-2.8-0.5-4.2c-1-5.2-3.5-9.4-8.2-12.1
			c-4.8-2.8-9.8-3-15-1.5C106.1,30.6,103.8,31.6,101.8,33.3z M91.3,67.3c0.2-0.4,0.4-0.7,0.6-1.1c1.2-2.6,1.4-5.3,0.8-8.1
			c-1.4-6-6.6-10.4-13.3-9.3c-5.5,0.9-9.6,5.9-9.8,11.6c-0.2,6,3.5,11.2,9,12.6c2.1,0.5,4.1,0.5,6.1-0.4c-2.4-0.1-4.4-1-5.9-3
			s-1.9-4.2-1.3-6.6c0.9-3.5,4.4-5.8,7.9-5.2C89.5,58.4,91.5,61.9,91.3,67.3z"/>
		<path d="M101,157.2c-13.2,3.5-26.4,3.7-39.9,0.5c6-14.1,13-27.5,20-40.9C82.7,118.9,99.2,151.9,101,157.2z"/>
		<path d="M436.5,41.7c1.1-0.7,1.9-1.3,2.7-1.9c3.3-2.2,6.8-3.7,10.9-3.3c3.2,0.3,5.4,1.7,6.8,4.6c0.1,0.2,0.3,0.5,0.4,0.7
			c2.1-1.2,4.1-2.5,6.2-3.6c2.7-1.4,5.6-2,8.6-1.5c3.9,0.7,6.7,4.1,6.9,8.5c0.2,3.3,0.1,6.6,0.1,9.8c0,3.6,0,7.3,0,10.9
			c0,2.1,0.4,2.5,2.5,2.7c0.8,0.1,1.5,0.1,2.4,0.1c0,0.8,0,1.6,0,2.4c-5.4,0-10.8,0-16.2,0c0-0.7,0-1.5,0-2.3c1-0.1,1.9-0.1,2.9-0.2
			c1.5-0.2,1.9-0.6,1.9-2.2c0-2.8,0-5.5,0-8.3c0-3.4-0.1-6.8-0.1-10.2c0-0.8-0.1-1.5-0.3-2.2c-0.9-3.6-3.8-5.4-7.5-4.2
			c-2.1,0.7-4.1,1.8-6.1,2.8c-0.3,0.2-0.6,0.7-0.6,1.1c0,7.1,0,14.2,0,21.2c0,1.2,0.6,1.9,1.8,2c1,0.1,2.1,0.2,3.2,0.2
			c0,0.8,0,1.5,0,2.3c-5.5,0-10.9,0-16.5,0c0-0.7,0-1.5,0-2.3c1-0.1,2.1-0.2,3.2-0.3c1.2-0.1,1.7-0.8,1.6-1.8c0-6.6,0-13.2-0.2-19.8
			c-0.1-3-1.7-5.2-4.1-5.6c-1.4-0.2-3-0.2-4.3,0.2c-1.9,0.6-3.6,1.6-5.4,2.6c-0.4,0.2-0.7,0.8-0.7,1.2c0,7,0,13.9,0,20.9
			c0,1.6,0.5,2.1,2,2.3c0.9,0.1,1.9,0.1,2.9,0.2c0,0.8,0,1.5,0,2.5c-0.4,0-0.7,0-1.1,0c-4.8,0-9.5,0-14.3,0c-0.9,0-1.4-0.1-1.4-1.2
			c0-1,0.3-1.4,1.4-1.4c0.7,0.1,1.5-0.1,2.3-0.2c1.1-0.1,1.5-0.8,1.5-1.8c0-7,0-14,0-21c0-2-1.1-3.5-3-4.2c-0.6-0.3-1-0.6-0.8-1.2
			c0.1-0.4,0.5-0.9,0.9-1c2.5-0.9,5-1.8,7.6-2.6c1.3-0.4,1.9,0,1.9,1.3C436.5,39.1,436.5,40.2,436.5,41.7z"/>
		<path d="M235.5,135.4c-1.3-1-2.7-1.7-3.8-2.8c-1.6-1.5-2.1-3.5-1.3-5.6c0.2-0.6,0.7-1.2,1.2-1.5c1.4-1,2.9-1.8,4.6-2.8
			c-0.6-0.4-1-0.7-1.4-0.9c-3.9-2.5-5.8-5.9-5.2-10.5c0.6-4.5,3.2-7.6,7.4-9.2c4.4-1.7,8.8-1.5,13.2-0.2c3.9,1.1,7.8,1.8,12,0.9
			c0,1.4,0,2.8,0,4.2c-2.2,0-4.5,0-6.8,0c0.1,0.3,0.1,0.5,0.2,0.6c3.1,5.2,0.3,12.2-5.6,14.9c-3.3,1.5-6.7,1.8-10.2,1.3
			c-1.3-0.2-2.4,0.6-3,2.1c-0.5,1.4-0.2,2.9,1.1,3.4s2.8,0.8,4.2,0.9c3.4,0.1,6.8,0,10.2,0.1c1.4,0,2.9,0.2,4.3,0.6
			c5,1.3,6.6,5.2,5.6,9.7c-1,4.7-4.2,7.9-8.5,10c-4,2-8.3,2.5-12.7,2.2c-2.4-0.2-4.9-0.5-7.3-1.3c-4.6-1.5-6.6-5.1-5.6-9.4
			c0.8-3.2,3.1-4.9,6-6.1C234.5,135.7,235,135.6,235.5,135.4z M245.9,135.6c-2.2,0.2-4,0.2-5.8,0.5c-2.7,0.5-5.1,1.5-5.9,4.5
			c-0.9,3.5,0.7,6.6,4.1,8.1c2.2,1,4.5,1.2,6.9,0.9c3.1-0.3,6-1,8.5-3c2.1-1.6,3-3.8,2.5-6.3c-0.5-2.4-2.4-3.5-4.5-4
			C249.6,135.9,247.6,135.8,245.9,135.6z M236.5,111.9c0,2.4,0.3,4.5,1.4,6.4c2.3,4.1,8.3,4.2,10.8,0.2c2.3-3.6,1.8-9.6-0.9-12.9
			c-2.4-2.9-6.9-2.8-9.2,0.1C237.1,107.6,236.5,109.7,236.5,111.9z"/>
		<path d="M177.3,25.3c0-0.1-0.1-0.3-0.1-0.4c-0.1-1.9-0.1-1.9,1.8-1.9c9.2,0,18.4,0.1,27.6,0.1c3,0,6.1,0,9.1-0.1
			c0.9,0,1.2,0.3,1.2,1.2c-0.1,2.9,0,5.8,0,8.8c0,0.3,0,0.6-0.1,0.9c-1.9,0.4-1.9,0.4-2.4-1.3c-1.1-3.8-3.7-6-8-6.2
			s-8.5-0.2-12.8-0.2c-0.6,0-1,0.1-1,0.9c0,5.8,0,11.5,0,17.4c0.4,0,0.7,0.1,1,0.1c3.4,0,6.7,0,10.1,0c2.9,0,4.2-1.2,4.7-4.1
			c0.1-0.7,0.2-1.3,0.3-2.1c0.7,0,1.3,0,2.1,0c-0.1,1.6-0.2,3.3-0.2,4.9c0,3.2,0.1,6.4,0.2,9.6c0,1.8,0,1.8-2,1.4
			c-0.1-0.8-0.2-1.6-0.3-2.5c-0.3-2.2-1.5-3.5-3.7-3.6c-3.9-0.2-7.9,0-12,0c0,0.2-0.1,0.7-0.1,1.1c0,4,0,8.1,0,12.1
			c0,1,0.1,1.9,0.2,2.9c0.3,2,1.4,3.2,3.4,3.5c4.7,0.5,9.5,0.6,14.2-0.5c3.3-0.8,5.5-3.1,7-6.1c0.9-1.8,0.9-1.8,2.9-1.1
			c-0.5,1.7-1.1,3.4-1.6,5.1c-0.5,1.7-1,3.4-1.4,5.2c-0.2,0.8-0.5,1-1.3,1c-6.4-0.1-12.9-0.2-19.3-0.2c-6,0-12,0.1-18,0.2
			c-0.5,0-1,0-1.5,0c-0.1-0.3-0.1-0.6-0.2-0.8c-0.1-1.6-0.1-1.6,1.6-1.7c0.3,0,0.6,0,0.8,0c3.2-0.1,4.7-1.5,4.8-4.7
			c0.1-11.5,0-23,0-34.4c0-2.5-1.2-3.7-3.6-3.9C179.6,25.5,178.4,25.4,177.3,25.3z"/>
		<path d="M227.1,133.4c0,0.3,0.1,0.4,0.1,0.6c0.1,1.7,0.1,1.7-1.7,1.7c-5.6,0-11.3,0-16.9,0c-2.2,0-2.2,0-1.8-2.4
			c0.9,0,1.9,0,2.8,0c2.4-0.1,3.2-1.2,2.4-3.4c-1.4-3.7-2.8-7.3-4.3-10.9c-0.1-0.4-0.8-0.7-1.1-0.7c-5.3,0-10.6,0-16,0
			c-0.4,0-0.9,0.3-1,0.6c-1.2,3.6-2.5,7.2-3.4,10.9c-0.6,2.3,0.5,3.5,2.9,3.6c1.3,0.1,2.6,0,3.9,0c0.1,0.2,0.1,0.3,0.1,0.4
			c0.1,2,0.1,1.9-1.9,1.9c-5,0-9.9,0-14.9,0c-2.2,0-2.2,0.1-2-2.3c0.7-0.1,1.4-0.2,2.1-0.3c2-0.2,3.4-1.3,4.2-3
			c1.6-3.4,3.1-6.8,4.6-10.3c3.1-7.5,6.2-15,9.3-22.5c0.6-1.5,1-3,1.5-4.5c0.1-0.3,0.2-0.7,0.1-0.9c-0.7-1.9,0.4-2.7,1.9-3.3
			c0.7-0.3,1.3-0.8,1.9-1.3c1.4-1.2,2.3-1,3,0.7c5.6,13.4,11.2,26.7,16.8,40.1c0.1,0.3,0.3,0.6,0.4,0.9c1.1,3,3.2,4.5,6.4,4.3
			C226.7,133.3,226.9,133.3,227.1,133.4z M206,114.8c-2.6-6.2-5.2-12.2-7.7-18.2c-0.1,0-0.2,0-0.3,0.1c-2.3,6-4.6,12-6.9,18.1
			C196.2,114.8,200.9,114.8,206,114.8z"/>
		<path d="M295,133.1c1.1,0,2.1,0,3,0c1.2-0.1,1.7-0.6,1.8-1.8c0-6.8,0-13.7,0-20.5c0-1.9-1.2-3.2-3.3-3.9c-0.7-0.2-1-0.5-1-1.3
			c0-0.9,0.5-1,1.1-1.2c2.9-1,5.7-2,8.6-3.1c1.1-0.4,1.3-0.3,1.3,0.8c0,1.2,0,2.4,0.1,3.6c0,0.1,0.1,0.1,0.2,0.4
			c0.4-0.2,0.8-0.4,1.2-0.6c2.6-1.6,5.2-3.3,8.2-4c1.9-0.4,3.8-0.6,5.7,0c3.7,1.1,5.4,3.9,6,7.5c0.2,1.2,0.2,2.5,0.2,3.7
			c0,6,0,12.1,0,18.1c0,2,0.5,2.5,2.5,2.5c0.8,0,1.6,0,2.4,0c0.1,0.2,0.1,0.4,0.1,0.5c0.1,2.2,0.1,2.1-2.1,2.1c-4.3-0.1-8.6,0-13,0
			c-0.9,0-1.5,0-1.5-1.2c0-1.1,0.3-1.4,1.4-1.4c3.3,0.1,3.5-0.1,3.5-3.5c0-5.6,0-11.2,0-16.8c0-1-0.1-2-0.4-3
			c-0.8-2.6-3.1-4-6.3-3.8c-2.8,0.2-5.3,1.3-7.7,2.8c-0.3,0.2-0.6,0.8-0.6,1.2c0,6.9,0,13.8,0,20.8c0,1.8,0.6,2.3,2.4,2.4
			c0.4,0,0.8,0,1.2,0c1.4,0,2,0.9,1.4,2.1c-0.2,0.3-0.9,0.5-1.4,0.5c-3.7,0-7.4,0-11.2,0c-0.8,0-1.7,0-2.5,0.1
			c-1.1,0.1-1.6-0.3-1.4-1.4C295,133.9,295,133.6,295,133.1z"/>
		<path d="M556.4,68.8c0,0.8,0,1.5,0,2.4c-5.5,0-11,0-16.5,0c0-0.8,0-1.5,0-2.4c0.9,0,1.7,0,2.6-0.1c1.9-0.2,2.3-0.7,2.3-2.6
			c0-5,0-9.9,0-14.9c0-1.1,0-2.2,0-3.4c-0.1-5.5-3.9-6.9-7.8-6.2c-2.2,0.4-4.3,1.5-6.3,2.4c-0.4,0.2-0.8,1-0.8,1.5
			c-0.1,6.9,0,13.8,0,20.8c0,1.6,0.4,2.1,2,2.2c0.9,0.1,1.9,0.1,2.9,0.2c0,0.8,0,1.5,0,2.3c-1.5,0-3,0-4.5,0c-3.6,0-7.2,0-10.8,0.1
			c-1,0-1.2-0.4-1.2-1.2c0-0.8,0.1-1.3,1.1-1.3c3.7,0,3.8-0.1,3.8-3.9c0-5.9,0-11.8,0-17.8c0-2.6-0.9-3.9-3.3-4.8
			c-0.7-0.2-1-0.6-1-1.3c0-0.8,0.5-1,1.1-1.2c2.8-1,5.6-2,8.4-3c1.3-0.5,1.5-0.3,1.5,1c0,1.2,0,2.4,0,3.8c0.7-0.4,1.1-0.6,1.5-0.9
			c2.7-1.7,5.3-3.4,8.5-4c6.2-1.3,10.8,1.9,11.3,8.2c0.3,3.1,0.2,6.1,0.2,9.2c0,4.1,0,8.2,0,12.2c0,1.6,0.4,2,1.9,2.2
			C554.3,68.7,555.3,68.7,556.4,68.8z"/>
		<path d="M395.7,36.5c0,1.7,0,3.3,0,5.2c0.8-0.5,1.4-0.8,1.9-1.1c2.5-1.6,5.1-3.1,8.1-3.8c6.1-1.4,10.6,1.7,11.4,7.9
			c0.1,1,0.2,2,0.2,3c0,6.2,0,12.3,0,18.5c0,1.9,0.3,2.3,2.2,2.5c0.9,0.1,1.7,0.1,2.7,0.2c0,0.8,0,1.6,0,2.3c-1.6,0-3.1,0-4.7,0
			c-3.6,0-7.1,0-10.7,0.1c-1.1,0-1.1-0.5-1.2-1.3c0-0.9,0.2-1.3,1.2-1.3c3.6,0,3.7-0.2,3.7-3.8c0-5.6-0.1-11.1,0-16.7
			s-3.9-7.4-8.1-6.4c-2.1,0.5-4.1,1.5-6.1,2.4c-0.4,0.2-0.8,0.9-0.8,1.3c0,6.9,0,13.8,0,20.8c0,1.7,0.5,2.2,2.2,2.4
			c0.5,0.1,1,0.1,1.4,0.1c1.3,0,2,0.9,1.4,2.1c-0.1,0.2-0.6,0.4-0.9,0.4c-1.3,0-2.6-0.1-4-0.1c-3.4,0-6.8,0.1-10.2,0.1
			c-0.4,0-0.9,0-1.4,0c0-0.8,0-1.6,0-2.4c1.1-0.1,2.1-0.2,3.2-0.3c1.1-0.1,1.6-0.8,1.6-1.8c0-6.8,0-13.6,0-20.4c0-1.9-1.1-3.3-3.3-4
			c-0.7-0.2-1-0.5-1-1.3c0-0.9,0.5-0.9,1.1-1.2c2.8-1,5.6-2,8.5-3C394.7,36.6,395.1,36.6,395.7,36.5z"/>
		<path d="M239.4,68.8c0,0.8,0,1.5,0,2.3c-1.6,0-3.2,0-4.7,0c-3.6,0-7.1,0-10.7,0.1c-1.1,0-1.1-0.5-1.2-1.3c0-0.9,0.2-1.3,1.2-1.3
			c3.6,0,3.7-0.2,3.7-3.8c0-5.9,0-11.8,0-17.6c0-2.7-0.9-4-3.5-4.9c-0.7-0.3-0.9-0.6-0.9-1.3c0-0.7,0.3-0.9,0.9-1.2
			c2.9-1,5.7-2,8.6-3.1c1.2-0.4,1.5-0.3,1.5,1c0,1.2,0,2.4,0,3.8c0.7-0.4,1.1-0.6,1.6-0.9c2.7-1.7,5.3-3.3,8.5-4
			c6.2-1.3,11,2.2,11.2,8.5c0.2,6.4,0.1,12.9,0.1,19.3c0,4,0.1,4.2,4.1,4.3c0.3,0,0.6,0,0.9,0.1c0,0.8,0,1.6,0,2.4
			c-5.5,0-10.9,0-16.5,0c0-0.7,0-1.5,0-2.3c1.1-0.1,2.2-0.2,3.3-0.3c0.9-0.1,1.3-0.6,1.4-1.5c0-0.1,0-0.2,0-0.2
			c0-6.7,0.1-13.4-0.1-20c-0.1-3.3-2.3-5.1-5.5-5.3c-3.3-0.1-6.1,1.2-8.7,2.8c-0.3,0.2-0.5,0.7-0.5,1c0,7.1,0,14.2,0,21.3
			c0,1.1,0.5,1.8,1.6,1.8C237.1,68.6,238.2,68.7,239.4,68.8z"/>
		<path d="M361.9,72.3c-4.9-0.1-10-1.7-13.6-6.5c-2.8-3.7-3.7-8-3.4-12.6c0.4-6.2,3-11.1,8.4-14.4c2.6-1.5,5.4-2.3,8.4-2.4
			c3.9-0.1,7.7,0.4,11.2,2.4c4.9,2.8,7.1,7.3,7.7,12.7c0.6,5.6-0.5,10.8-4.4,15C372.6,70.6,368.1,72.4,361.9,72.3z M373.3,54.8
			c0-4.3-1-8.2-2.8-11c-2.2-3.5-5.5-5-9.5-4.3c-3.4,0.6-5.4,2.8-6.8,5.8c-1.6,3.5-2,7.3-1.6,11.1c0.3,2.9,1,5.7,2.6,8.3
			c4,6.4,12.2,6.2,15.9-0.4C372.7,61.5,373.4,58.2,373.3,54.8z"/>
		<path d="M401.6,102.2c0,0.8,0,1.5,0,2.4c-3.6-0.1-5,2.5-6.1,5.3c-5.4,12.8-10.9,25.6-16.4,38.4c-0.4,1-0.9,2-1.6,2.8
			c-1.4,1.8-4.4,2.1-6.1,0.9c-1.5-1.1-2-3.2-1.1-4.9c1-1.9,2.9-2.8,4.9-2.1c0.5,0.2,0.9,0.4,1.6,0.7c1.6-3.7,3.2-7.4,4.7-11
			c0.1-0.3,0-0.9-0.1-1.2c-3.2-8.1-6.5-16.2-9.6-24.4c-1-2.6-2.3-4.4-5.4-4.4c0-0.9,0-1.6,0-2.4c5.3,0,10.5,0,15.8,0
			c0,0.8,0,1.5,0,2.3c-0.8,0.1-1.7,0.2-2.5,0.4c-1.3,0.3-1.8,1.1-1.4,2.4c1.6,4.3,3.3,8.6,5,12.9c0.7,1.7,1.3,3.4,2.2,5.4
			c0.7-1.6,1.2-2.9,1.7-4.2c1.5-3.6,2.9-7.2,4.4-10.7c0.3-0.7,0.5-1.3,0.7-2c0.7-2.5-0.1-3.8-2.7-4c-1.3-0.1-1.2-0.8-1.2-1.7
			c-0.1-1.1,0.7-0.9,1.4-0.9c3.6,0,7.2,0,10.8,0C400.9,102.1,401.2,102.1,401.6,102.2z"/>
		<path d="M493.2,50.6c-0.7,5.4,0.9,12.2,5.9,15.2c3.6,2.2,7.2,1.7,10.6-0.4c1.4-0.8,2.5-1.9,3.9-2.9c0.2,0.2,0.4,0.4,0.7,0.6
			c0.7,0.5,0.7,1,0.2,1.7c-2.7,3.3-5.6,6.2-9.9,7.2c-6.7,1.5-12.9-0.7-16.1-7.5c-3.5-7.3-2.2-17.4,3-23.2c4.9-5.4,13.4-6.3,18.8-2.1
			c3.2,2.5,4.5,5.9,4.5,9.9c0,1-0.7,1.6-1.8,1.6c-6.1,0-12.2,0-18.2,0C494.3,50.6,493.8,50.6,493.2,50.6z M493.7,47.6
			c4.2,0,8.4,0,12.7,0c0.9,0,1.4-0.7,1.5-1.6c0.2-2.3-1.3-4.9-3.3-5.8C499.5,37.9,494.2,41.6,493.7,47.6z"/>
		<path d="M290.7,127c0.4,0.4,0.9,0.8,1.3,1.3c-4.8,7.1-11,9.9-18.1,8c-4.7-1.2-7.6-4.5-9.1-8.9c-2.2-6.1-1.9-12.2,1-17.9
			c2.7-5.4,7.3-8.5,13.5-8.6c7,0,12.4,5.3,12.4,12.1c0,1.5-0.5,2-2,2c-6.1,0-12.2,0-18.2,0c-1.6,0-1.6,0-1.6,1.6
			c0.1,3.8,0.6,7.4,2.9,10.6c3.3,4.6,8.4,5.8,13.3,3C287.7,129.3,289.1,128.1,290.7,127z M270.6,112c0.5,0,1,0.1,1.5,0.1
			c2.6,0,5.3,0,7.9,0c1.1,0,2.2,0,3.2-0.1c0.8,0,1.4-0.4,1.5-1.3c0.6-3.9-3-7.4-6.9-6.8C273.9,104.6,271,107.7,270.6,112z"/>
		<path d="M282.9,37.5c1.2,0.1,2.2,0.1,3.3,0.1c3,0,5.9-0.1,8.9-0.1c0.6,0,1.3,0,1.2,0.9c-0.1,0.7,0.4,1.7-0.9,1.8
			c-2.1,0.2-3.4,1.5-4.2,3.3c-1.2,2.7-2.4,5.4-3.6,8.1c-2.8,6.5-5.6,13-8.4,19.6c-0.4,0.9-0.9,1.1-1.8,1.1s-1.3-0.3-1.7-1.1
			c-3.5-8.5-7-17.1-10.5-25.6c-0.4-1-0.9-2-1.4-3c-0.8-1.5-1.9-2.5-3.7-2.5c-1.4,0-0.9-1-1-1.7c-0.1-0.9,0.5-0.9,1.1-0.9
			c3.8,0.1,7.6,0.1,11.4,0.1c1.4,0,2.9,0,4.4,0c0,0.2,0.1,0.4,0.1,0.6c0.1,1.8,0.1,1.8-1.7,2c-2,0.2-2.8,1.2-2.3,3.2
			c0.2,1,0.6,2,1,2.9c1.9,4.7,3.7,9.4,5.6,14.1c0.2,0.4,0.3,0.8,0.6,1.4c0.7-1.7,1.4-3.1,2-4.5c1.6-3.7,3.2-7.5,4.8-11.2
			c0.5-1.1,0.7-2.3,0.9-3.4c0.2-1.5-0.4-2.3-2-2.5c-0.7-0.1-1.3-0.2-2.1-0.3C282.9,39.2,282.9,38.5,282.9,37.5z"/>
		<path d="M363.5,127.2c0.5,0.6,1.1,1.1,1.7,1.8c-3.1,3.6-6.6,6.4-11.3,7.3c-9,1.7-16.9-3.9-18-13.1c-1-7.9,1.3-14.6,8.1-19.2
			c5.2-3.5,11-3.6,16.9-1.5c1.6,0.6,2.9,1.6,3.3,3.5c0.3,1.6-0.4,3.3-1.6,3.9c-1.4,0.7-2.5,0.3-3.8-1.1c-0.3-0.4-0.6-0.7-0.9-1.1
			c-2.4-3.8-7.5-3.9-10.7-1.6c-2.9,2.2-4.5,5.2-4.9,8.7c-0.4,3.3-0.1,6.6,1.3,9.7c1.7,3.9,4.8,5.9,9,6.2
			C357.3,131,358.7,130.5,363.5,127.2z"/>
		<path d="M561.7,41.5c-1.7,0-3.2,0-4.7,0c-0.4-1.1-0.2-1.7,0.8-2.3c3.4-2.1,6.2-4.9,8.4-8.3c0.5-0.8,1.1-1.1,2.1-0.7
			c0,1.9,0.1,3.9,0,5.9c0,1.1,0.3,1.4,1.4,1.4c3.1-0.1,6.1,0,9.3,0c0,1.3,0,2.5,0,3.9c-0.4,0-0.9,0-1.3,0c-2.8,0-5.5,0-8.3,0
			c-0.7,0-1.1,0.1-1.1,1c0,6.6,0,13.2,0,19.8c0,0.6,0.1,1.3,0.3,1.9c0.7,2.9,3.1,4.2,6,3.3c1.1-0.4,2.1-1,3.3-1.6
			c0.4,0.3,0.8,0.8,1.4,1.4c-3.1,3.2-6.4,5.4-10.9,5.2c-4.3-0.2-6.7-2.7-6.7-7.1c0-7.4,0-14.7,0-22.1
			C561.7,42.6,561.7,42.2,561.7,41.5z"/>
		<path d="M318.9,42.3c-0.3-1.1,0.1-1.6,1-2c2.5-1.1,4.9-2.3,7.4-3.5c1.5-0.7,1.9-0.5,1.9,1.2c0,1.4,0,2.8,0.3,4.4
			c0.3-0.3,0.6-0.7,0.9-1c2.1-2.5,4.5-4.6,8-4.8c1.8-0.1,3.3,0.5,4.3,2.1c0.8,1.4,0.8,2.9,0,4.3c-1,1.9-3.4,2.5-5.3,1.4
			c-3.6-2.2-7.5-0.3-8,4c-0.1,1.1-0.1,2.3-0.1,3.5c0,4.8,0,9.5,0,14.3c0,2.2,0.4,2.6,2.6,2.7c0.8,0.1,1.7,0,2.5,0s1.7,0,2.6,0
			c0,0.9,0,1.6,0,2.4c-6.6,0-13.2,0-19.8,0c0-0.7,0-1.5,0-2.5c1.1,0,2.2,0.1,3.2,0c1.8-0.1,2.3-0.5,2.3-2.2c0-6.6,0-13.1,0-19.7
			c0-2.2-1.1-3.6-3.2-4.2C319.3,42.5,319.1,42.4,318.9,42.3z"/>
		<path d="M314.3,68.8c0,0.8,0,1.5,0,2.3c-5.5,0-11,0-16.5,0c0-0.7,0-1.5,0-2.3c1.1-0.1,2.2-0.2,3.3-0.3c1.2-0.1,1.7-0.8,1.7-1.9
			c0-6.9,0-13.8,0-20.8c0-2-1.1-3.5-2.9-4.3c-0.7-0.3-1.1-0.7-0.9-1.4c0.1-0.4,0.6-0.7,1-0.9c2.5-0.9,5.1-1.7,7.6-2.5
			c1.3-0.5,1.8-0.2,1.8,1.2c0,9.2,0,18.3,0,27.5c0,0.5,0,1,0.1,1.4c0.1,0.9,0.6,1.6,1.6,1.6C312,68.6,313.1,68.7,314.3,68.8z"/>
		<path d="M306.1,21.9c2.2,0,3.9,1.8,3.9,4s-1.8,3.9-4,3.9s-4.1-1.9-4-4.1C302.1,23.7,304,21.9,306.1,21.9z"/>
	</g>
</g>
</svg>
