<?xml version="1.0" encoding="utf-8"?>
<!-- Generator: Adobe Illustrator 24.2.0, SVG Export Plug-In . SVG Version: 6.00 Build 0)  -->
<svg version="1.1" id="Layer_1" focusable="false" xmlns="http://www.w3.org/2000/svg" xmlns:xlink="http://www.w3.org/1999/xlink"
	 x="0px" y="0px" viewBox="0 0 994 176.5" style="enable-background:new 0 0 994 176.5;" xml:space="preserve">
<style type="text/css">
	.st0{fill:#050505;}
</style>
<g transform="translate(0.000000,179.000000) scale(0.100000,-0.100000)">
	<path class="st0" d="M894.2,1765c-9-13-63-54-120-91c-164-108-197-146-197-232c0-70,24-131,80-200c79-99,96-143,62-161
		c-28-15-54,8-118,105c-60,92-113,136-187,156c-64,17-109-3-243-110c-61-48-125-94-143-101c-17-8-30-16-28-20c22-40,45-106,72-202
		c54-200,96-244,230-243c56,0,86,6,148,32c93,38,143,42,152,12c12-39-14-54-171-99c-126-37-204-131-189-230c4-24,26-97,51-161
		c24-65,46-135,50-156l6-39h191c203,1,224,5,269,49c52,53,62,90,68,241c5,139,10,165,33,165c37-1,42-17,47-162c6-150,15-183,64-236
		c47-52,67-56,274-57h192l6,35c3,19,26,91,51,160c59,158,63,226,19,284c-40,53-101,94-165,112c-31,8-72,19-91,24c-19,6-46,18-59,28
		c-20,17-22,22-11,42c10,19,18,22,50,17c21-3,68-17,105-32c164-65,289-32,335,90c6,17,25,79,41,138c16,60,39,126,50,149
		c11,22,19,41,17,43c-2,1-21,12-43,23c-23,11-77,50-120,87c-112,93-158,119-214,119c-83-1-160-58-234-174c-50-80-80-105-106-91
		c-12,7-21,20-21,30c0,20,36,77,81,129c39,44,67,101,80,161c21,101-18,157-186,269c-49,33-103,74-119,91c-17,17-32,31-35,31
		S904.2,1778,894.2,1765z M977.2,1578c32-24,77-55,99-70c87-59,95-115,32-229c-44-81-50-118-27-174c11-25,23-36,50-44
		c58-16,95,1,169,79c37,38,79,73,92,76c45,11,90-5,151-56c32-27,76-60,97-72c24-15,36-28,33-38c-3-8-18-60-34-115
		c-15-55-36-112-45-126c-24-36-67-52-119-45c-24,3-75,9-115,12l-72,7l-37-37c-32-32-36-41-31-71c10-59,41-90,132-134
		c128-61,140-102,75-265c-16-42-30-87-30-99c0-22-2-22-133-22c-185,0-210,19-227,163c-10,93-17,109-62,147c-26,22-39,26-66,21
		c-67-10-99-60-112-176c-16-140-39-156-223-153l-131,2l-12,48c-7,26-22,70-33,96c-32,74-36,118-16,161c15,31,32,43,100,76
		c89,43,121,73,131,125c16,86-68,137-181,110c-99-24-132-20-170,18c-21,21-39,54-50,92c-9,33-26,87-37,120c-15,42-17,60-9,63
		c6,2,34,23,62,45c103,84,140,107,176,107c48,0,83-21,128-75c48-59,90-85,137-85c50,0,66,8,83,41c26,50,19,104-25,184
		c-67,121-53,167,74,250c46,30,89,61,96,70c7,8,14,15,16,15S944.2,1601,977.2,1578z"/>
	<path class="st0" d="M810.2,1025c-142-72-176-251-70-371c51-58,105-84,177-84c187,0,302,209,203,369
		C1056.2,1041,918.2,1080,810.2,1025z M995.2,969c144-70,122-286-35-330c-74-20-161,20-198,92c-41,79-2,198,77,238
		C893.2,996,939.2,996,995.2,969z"/>
	<path class="st0" d="M5984.3,1165.1c-48.5-13-97-41.4-135.4-79.8c-58-58-84-121.2-84-203.4c0.6-135.4,88.1-249,218.8-281.5
		c72.2-17.7,202.3-5.3,266.1,26l26.6,13l1.8,46.1l1.8,46.1l-37.3-18.9c-50.9-25.4-78.1-34.3-126.6-41.4
		c-84-11.2-159.1,12.4-210.5,66.8c-37.8,39.6-52,79.2-52,145.5c0,44.4,2.4,56.2,17.2,88.1c59.7,125.4,215.3,161.5,369,84l33.7-17.2
		v44.4v44.9l-25.4,10.6C6169.5,1172.2,6054.1,1184,5984.3,1165.1z"/>
	<path class="st0" d="M7635.5,1165.6c-99.9-27.8-179.8-103.5-208.8-196.3c-16-51.5-16-123.6,0-174.5
		c43.8-141.9,175.6-220,340.1-201.1c56.8,6.5,137.2,29,154.4,43.2c5.9,4.7,8.3,20.7,8.3,50.3V731l-36.7-18.3
		c-76.3-38.4-142.5-51.5-208.8-40.8c-98.2,15.4-164.4,78.7-180.4,172.1c-21.3,121.8,56.2,227.1,182.7,249c55,9.5,127.7-3,191.6-32.5
		l46.1-21.3l-1.8,45.5l-1.8,45.5l-59.1,20.1c-50.9,17.7-68.6,20.7-127.2,22.5C7687,1173.9,7656.8,1171.6,7635.5,1165.6z"/>
	<path class="st0" d="M2447.2,881.8V594.9h168.5h168.5v38.4v38.4h-127.2H2530v248.4v248.4h-41.4h-41.4V881.8z"/>
	<path class="st0" d="M9863.3,881.8V594.4l37.3,1.8l36.7,1.8l1.8,285.6l1.2,285.1h-38.4h-38.4V881.8z"/>
	<path class="st0" d="M3254.5,1118.3c-17.7-17.7-18.9-37.8-2.4-58.5c24.2-30.8,76.3-11.8,76.3,28.4c0,20.1-24.2,44.9-44.4,44.9
		C3275.8,1133.1,3262.1,1126.6,3254.5,1118.3z"/>
	<path class="st0" d="M6377,1118.3c-18.9-18.3-19.5-43.8-1.2-60.9c42.6-39.6,101.7,20.1,60.3,60.9c-7.7,8.3-21.3,14.8-29.6,14.8
		C6398.3,1133.1,6384.7,1126.6,6377,1118.3z"/>
	<path class="st0" d="M9690,1121.3c-33.1-26-14.2-76.9,27.8-76.9c37.3,0,58,49.1,31.3,75.1C9735,1134.3,9707.8,1134.9,9690,1121.3z"
		/>
	<path class="st0" d="M4527.1,980.5c-38.4-38.4-68-71.6-65.6-73.9c2.4-2.4,18.3-4.1,35.5-4.1h31.3l1.8-122.4
		c1.8-117.7,2.4-123.6,15.4-142.5c31.3-43.2,105.9-58.5,168.5-34.9l27.8,11.2v34.9c0,18.9-0.6,34.9-1.2,34.9
		c-1.2,0-16-5.3-33.1-11.8c-42.6-16-69.2-15.4-86.9,3c-14.8,14.2-14.8,15.4-14.8,120.6v106.5l58,1.8l57.4,1.8l1.8,34.3l1.8,33.7
		h-59.7h-59.1v38.4c0,21.3-1.8,38.4-4.7,38.4C4598.7,1050.3,4565.6,1019,4527.1,980.5z"/>
	<path class="st0" d="M6567.5,982.9c-37.8-36.1-69.2-69.2-69.2-72.7c0-5.3,10.6-7.7,32.5-7.7h32.5V788.9c0-134.8,5.3-153.2,52-181
		c34.3-19.5,88.7-21.9,133.1-5.3l27.8,11.2v35.5c0,31.3-1.2,34.9-10.1,31.3c-60.3-25.4-90.5-27.2-111.2-5.9
		c-14.8,14.2-14.8,15.4-14.8,120.6v106.5l58,1.8l57.4,1.8l1.8,34.3l1.8,33.7h-59.1h-59.1l-1.8,37.8l-1.8,37.3L6567.5,982.9z"/>
	<path class="st0" d="M2938.7,971.7c-30.2-9.5-79.8-58.5-95.8-94c-11.2-25.4-13.6-41.4-14.2-87.5c0-48.5,2.4-60.9,15.4-89.3
		c35.5-76.3,86.3-108.2,170.9-107.6c52.6,0,93.4,10.1,128.9,31.3c17.7,11.2,18.9,13.6,18.9,47.9c0,19.5-1.8,34.9-4.1,33.7
		c-3-1.2-19.5-9.5-37.3-18.9c-26.6-14.2-41.4-17.7-84-20.1c-47.3-2.4-53.8-1.2-78.1,13c-18.9,11.2-30.2,23.7-41.4,46.1
		c-27.8,55-34.3,52,118.3,52h134.2l-4.1,31.3c-7.7,60.9-21.9,94-53.8,125.4c-18.3,18.9-38.4,32.5-53.8,37.3
		C3029.1,980.5,2966.4,980.5,2938.7,971.7z M3048.7,902.5c19.5-11.8,32.5-31.9,39.6-60.3l3.5-16.6h-94h-94.6l6.5,19.5
		c10.1,28.4,26,48.5,47.3,59.1C2983.6,917.9,3025.6,916.7,3048.7,902.5z"/>
	<path class="st0" d="M3525.9,972.3c-37.3-12.4-75.1-47.3-96.4-89.3c-18.9-36.1-20.7-44.4-20.7-91.7c0-61.5,8.3-92.8,33.7-126.6
		c27.2-35.5,59.7-56.2,107-68c34.3-8.3,47.9-8.9,85.8-3.5c24.8,4.1,52,9.5,61.5,13c14.8,5.9,16,8.3,16,42c0,19.5-2.4,35.5-5.3,35.5
		s-16.6-4.1-30.8-9.5c-30.8-11.2-95.2-12.4-120.6-2.4c-21.3,7.7-48.5,32.5-59.1,53.2c-32.5,62.1-1.8,154.4,58,176.8
		c29,11.2,75.7,7.7,109.4-8.3c17.7-8.3,33.1-14.8,34.3-14.8c1.2,0,2.4,17.2,2.4,39v38.4l-21.9,9.5
		C3651.9,977.6,3553.1,981.7,3525.9,972.3z"/>
	<path class="st0" d="M3878.4,966.9c-137.2-62.1-138.4-291-2.4-357.8c57.4-28.4,153.8-21.3,214.1,15.4
		c17.7,11.2,18.9,13.6,18.9,47.3v35.5l-36.7-18.3c-29.6-14.8-46.7-19.5-82.2-21.9c-26-1.2-53.8,0-65.6,4.1
		c-29.6,10.1-58.5,42-66.8,75.7l-7.1,28.4l133.1,1.8l133.1,1.2l-3.5,39c-6.5,69.2-43.2,127.2-95.8,150.8
		C3983.7,983.5,3913.9,982.9,3878.4,966.9z M3994.9,902.5c22.5-13.6,35.5-32.5,40.8-58l4.1-18.9h-93.4h-92.8l3.5,16.6
		C3871.3,900.7,3944.6,933.2,3994.9,902.5z"/>
	<path class="st0" d="M4236.2,968.1c-30.8-14.2-47.9-33.1-55.6-62.7c-14.2-53.8,18.9-98.8,111.8-153.8
		c60.9-36.1,72.2-54.4,45.5-77.5c-26-22.5-63.3-19.5-118.9,8.3l-44.9,22.5v-40.2v-40.8l28.4-11.8c43.8-19.5,93.4-25.4,134.2-17.2
		c27.2,5.9,40.2,12.4,61.5,32.5c27.2,26,27.2,26,27.2,66.8c0,35.5-1.8,43.2-17.2,63.3c-9.5,12.4-37.3,34.9-62.1,50.3
		c-81,51.5-89.3,58-89.3,73.3c0,36.1,52.6,43.2,111.2,15.4c20.7-10.1,39-17.7,40.2-17.7s2.4,17.2,2.4,37.8v37.8l-36.7,12.4
		C4327.3,982.9,4268.7,983.5,4236.2,968.1z"/>
	<path class="st0" d="M4874.9,965.2c-37.8-17.2-76.3-60.3-89.3-99.9c-14.2-41.4-14.2-110.6,0-150.8c15.4-45.5,49.7-85.8,89.3-105.3
		c58-28.4,154.4-21.3,214.7,15.4c17.7,11.2,18.9,13.6,18.9,47.9c0,19.5-1.8,34.9-4.1,33.7c-3-1.2-19.5-9.5-37.3-18.9
		c-34.9-18.3-92.3-26.6-132.5-18.9c-37.8,7.1-73.9,47.3-82.2,91.1l-3.5,18.9h133.7h133.7l-3.5,34.9c-7.7,73.9-46.1,134.8-99.9,157.3
		C4977.8,984.7,4911,982.3,4874.9,965.2z M4994.4,902.5c22.5-13.6,35.5-32.5,40.8-58l4.1-18.9h-92.8c-103.5,0-102.9,0-79.8,41.4
		C4891.4,910.8,4953,927.9,4994.4,902.5z"/>
	<path class="st0" d="M5348,972.3c-18.3-10.1-38.4-29-56.8-54.4l-17.2-23.1v39v39.6h-38.4h-38.4V784.2V594.4l37.3,1.8l36.7,1.8
		l3,121.2c3,114.7,3.5,122.4,17.2,144.3c31.9,50.9,84.6,58,131.3,17.2c8.9-7.1,11.8-5.3,28.4,21.9c10.1,16.6,18.3,32.5,18.3,35.5
		c0,3.5-12.4,14.2-27.8,23.7C5411.9,980.5,5371.1,985.3,5348,972.3z"/>
	<path class="st0" d="M9020.6,966.9c-13-7.1-29.6-18.3-36.7-24.8l-13.6-11.8v21.3v21.9h-38.4h-38.4V784.2V594.9h38.4h38.4v137.8
		v137.8l16.6,15.4c24.2,22.5,38.4,28.4,72.2,28.4c66.2,0,72.2-14.2,75.7-188.1l3-131.9l36.1,1.8l36.1,1.8l-0.6,139
		c0,136.6-0.6,139.6-15.4,172.7c-21.9,47.3-51.5,66.2-107.6,68C9052.5,979.4,9039.5,977,9020.6,966.9z"/>
	<path class="st0" d="M9405,970.5c-74.5-27.8-121.2-111.8-113.5-205.2c6.5-78.1,50.9-139,117.1-162c41.4-14.8,114.7-14.8,157.9,0
		l30.8,10.6v34.9c0,18.9-2.4,34.9-5.3,34.9s-16.6-4.1-30.8-9.5c-31.9-11.2-89.3-13-118.9-3c-41.4,13.6-75.7,66.2-75.7,115.9
		c0,45.5,27.8,93.4,66.8,113.5c27.2,13.6,89.9,7.7,124.8-11.8l27.2-15.4v41.4v40.8l-21.9,9.5C9532.1,978.8,9436.3,981.7,9405,970.5z
		"/>
	<path class="st0" d="M3246.8,786l1.8-188.1l37.3-1.8l36.7-1.8v189.8v189.2H3284h-38.4L3246.8,786z"/>
	<path class="st0" d="M6368.2,784.2V594.9h38.4h38.4v189.2v189.2h-38.4h-38.4V784.2z"/>
	<path class="st0" d="M6776.2,970.5c0-1.8,32.5-67.4,71.6-146.7l72.2-143.7L6859,550.6c-33.1-71.6-61.5-133.7-63.3-137.8
		c-2.4-5.9,6.5-7.1,39.6-5.9l43.2,1.8l124.8,266.1c68.6,146.7,128.3,273.2,131.9,282.7l7.7,16h-43.2h-42.6l-47.3-104.7l-47.3-104.1
		l-50.3,104.1L6862,973.4h-42.6C6795.7,973.4,6776.2,972.3,6776.2,970.5z"/>
	<path class="st0" d="M8127,965.2c-101.7-33.1-155.5-141.9-122.4-246.6c14.2-44.4,68.6-99.4,114.1-115.3
		c50.3-17.2,117.7-14.8,162.6,5.9c43.2,19.5,75.7,49.7,96.4,89.3c13.6,25.4,15.4,36.7,15.4,82.8c0,44.4-2.4,58-14.2,82.8
		c-18.3,37.8-54.4,73.3-91.7,91.7C8251.2,972.9,8166,978.2,8127,965.2z M8257.7,888.9c94-51.5,73.3-199.9-30.8-221.8
		c-62.1-13.6-115.3,9.5-140.8,60.3c-35.5,71,1.8,157.3,75.1,175.6C8189.1,909.6,8230.5,903.7,8257.7,888.9z"/>
	<path class="st0" d="M8474.7,830.3c1.8-137.2,2.4-144.9,16-172.1c15.4-31.3,42-52,82.2-63.9c34.9-10.1,81.6,1.2,116.5,27.8
		l26.6,20.1V618v-23.7l37.3,1.8l36.7,1.8l1.8,188.1l1.2,187.5h-38.4H8716V838.6V703.8l-16-16c-44.9-42.6-113.5-43.8-136.6-1.8
		c-8.3,15.4-10.1,39.6-11.8,153.2l-2.4,134.2h-38.4h-38.4L8474.7,830.3z"/>
	<path class="st0" d="M9680,784.2V594.4l37.3,1.8l36.7,1.8l1.8,188.1l1.2,187.5h-38.4H9680V784.2z"/>
</g>
</svg>
