<svg version="1.1" width="100%" height="100%" id="Layer_1" xmlns="http://www.w3.org/2000/svg" xmlns:xlink="http://www.w3.org/1999/xlink" x="0px" y="0px"
	 viewBox="0 0 24 24" style="enable-background:new 0 0 24 24;" xml:space="preserve">
<path d="M12,11c1.4,0.4,2.6,1.6,3,3c0.4-1.4,1.6-2.6,3-3c-1.4-0.4-2.6-1.6-3-3C14.6,9.4,13.4,10.6,12,11z M20,11c1,0.3,1.7,1,2,2
	c0.3-1,1-1.7,2-2c-1-0.3-1.7-1-2-2C21.7,10,21,10.7,20,11z M19,2c-0.4,1.4-1.6,2.6-3,3c1.4,0.4,2.6,1.6,3,3c0.4-1.4,1.6-2.6,3-3
	C20.6,4.6,19.4,3.4,19,2z M12,24C5.4,24,0,18.6,0,12S5.4,0,12,0c1.9,0,3.6,0.5,5.4,1.2C14.4,1.7,8,4.4,8,12c0,7.5,5.9,10.2,9.4,10.8
	C15.9,23.7,13.9,24,12,24z"/>
</svg>
