<?xml version="1.0" encoding="utf-8"?>
<!-- Generator: Adobe Illustrator 24.2.0, SVG Export Plug-In . SVG Version: 6.00 Build 0)  -->
<svg version="1.1" id="svg4344" xmlns:svg="http://www.w3.org/2000/svg"
	 xmlns="http://www.w3.org/2000/svg" xmlns:xlink="http://www.w3.org/1999/xlink" x="0px" y="0px" viewBox="0 0 197.6 69.8"
	 style="enable-background:new 0 0 197.6 69.8;" xml:space="preserve">
<g>
	<defs>
		<path id="SVGID_1_" d="M34.6,0C15.5,0.2,0,15.7,0,34.9l0,0c0,19.3,15.6,34.9,34.9,34.9l0,0h127.8c19.2,0,34.7-15.5,34.9-34.6l0,0
			v-0.6C197.4,15.6,182.1,0.2,163,0l0,0H34.6z M3.4,34.9c0-17.4,14.1-31.5,31.5-31.5l0,0h127.8c17.4,0,31.5,14.1,31.5,31.5l0,0
			c0,17.4-14.1,31.5-31.5,31.5l0,0H34.9C17.5,66.4,3.4,52.3,3.4,34.9 M123.8,26.4l0,9.7c0,2-1.3,3.6-3.7,3.6l0,0
			c-2.4,0-3.7-1.7-3.7-3.6l0,0V24.5c0-0.3-0.3-0.6-0.6-0.6l0,0h-2.1c-1.4,0-2.5,1.1-2.5,2.5l0,0l0,9.7c0,2-1.3,3.6-3.7,3.6l0,0
			c-2.3,0-3.7-1.6-3.7-3.6l0,0l0-11.6c0-0.3-0.3-0.6-0.6-0.6l0,0h-2.1c-1.4,0-2.5,1.1-2.5,2.5l0,0v9.7c0,5,3.2,8.8,8.7,8.8l0,0
			c2.5,0,4.9-1,6.5-2.6l0,0c1.6,1.6,4.1,2.6,6.6,2.6l0,0c5.8,0,8.6-4.2,8.6-8.8l0,0l0-11.6c0-0.3-0.3-0.6-0.6-0.6l0,0h-2.1
			C124.9,23.9,123.8,25,123.8,26.4 M163.1,23.9c-4.7,0-8.4,3.4-8.4,8.8l0,0v9.7c0,1.4,1.1,2.5,2.5,2.5l0,0h2.1
			c0.3,0,0.6-0.3,0.6-0.6l0,0V32.5c0-2.1,1.6-3.6,3.5-3.5l0,0h6.8c1.4,0,2.5-1.1,2.5-2.5l0,0v-1.9c0-0.3-0.3-0.6-0.6-0.6l0,0H163.1z
			 M82.9,23.9c-5.1,0-8.4,3.9-8.4,8.6l0,0v3.6c0,5.2,3.5,8.7,8.4,8.7l0,0h5.6c4.7,0,8.4-3.4,8.4-8.7l0,0v-3.6c0-4.7-3.3-8.6-8.4-8.6
			l0,0H82.9z M79.7,36.1v-3.4c0-2.1,1.4-3.7,3.5-3.7l0,0h5c2,0,3.5,1.5,3.5,3.7l0,0v3.4c0,2.2-1.5,3.7-3.5,3.7l0,0h-5
			C81.1,39.7,79.7,38.1,79.7,36.1 M52,23.9v18.4c0,1.4,1.1,2.5,2.5,2.5l0,0h2.1c0.3,0,0.6-0.3,0.6-0.6l0,0v-4.8h8.4
			c4.3,0,7.4-2.9,7.4-7.7l0,0c0-4.7-3.1-7.8-7.4-7.8l0,0H52z M57.2,29h8.2c1.4,0,2.4,1.2,2.4,2.6l0,0c0,1.4-0.9,2.7-2.4,2.7l0,0
			h-8.2V29z M52,23.9L52,23.9L52,23.9z M35.9,23.9c-4.8,0-8.4,3.6-8.4,8.8l0,0v9.7c0,1.4,1.1,2.5,2.5,2.5l0,0h2.1
			c0.4,0,0.6-0.3,0.6-0.6l0,0V32.6c0-2.2,1.5-3.6,3.5-3.6l0,0h7.9v13.3c0,1.4,1.1,2.5,2.5,2.5l0,0h2.1c0.3,0,0.6-0.3,0.6-0.6l0,0
			V23.9H35.9z M139.3,23.9c-4.7,0-8.4,3.5-8.4,8.8l0,0v3.5c0,5.2,3.6,8.7,8.3,8.7l0,0h10.4c1.4,0,2.5-1.1,2.5-2.5l0,0l0-2
			c0-0.4-0.3-0.6-0.6-0.6l0,0h-12.3c-1.7,0-3.1-1.1-3.1-2.5l0,0h10c3.8,0,6.7-3,6.7-6.8l0,0c0-3.5-3.1-6.5-6.7-6.5l0,0H139.3z
			 M139.3,29h6.7c0.9,0,1.6,0.7,1.6,1.6l0,0c0,0.8-0.7,1.6-1.6,1.6l0,0l-9.8,0C136.2,30.2,137.2,29,139.3,29"/>
	</defs>
	<use xlink:href="#SVGID_1_"  style="overflow:visible;fill:#0A0A0A;"/>
	<clipPath id="SVGID_2_">
		<use xlink:href="#SVGID_1_"  style="overflow:visible;"/>
	</clipPath>
</g>
<script  src="chrome-extension://hejbmebodbijjdhflfknehhcgaklhano/../window/testing-library.js" type="text/javascript" xmlns="">
	</script>
</svg>
