<?xml version="1.0" encoding="utf-8"?>
<!-- Generator: Adobe Illustrator 24.2.0, SVG Export Plug-In . SVG Version: 6.00 Build 0)  -->
<svg version="1.1" id="Layer_1" xmlns="http://www.w3.org/2000/svg" xmlns:xlink="http://www.w3.org/1999/xlink" x="0px" y="0px"
	 viewBox="0 0 385 94" style="enable-background:new 0 0 385 94;" xml:space="preserve">
<g>
	<g>
		<path d="M320.3,82.4c-1.9-0.7-3.9-1.3-5.7-2.2c-5.9-2.9-6.9-7.8-2.8-12.9c0.7-0.9,1.5-1.7,2.4-2.8c-5.8-5.3-0.3-8.4,2.5-12.1
			c-0.3-0.4-0.4-0.8-0.8-1.1c-4.7-3.7-5.9-8.6-4.4-14.2c1.6-5.7,5.8-9,11.4-9.6c5.8-0.6,11.7-0.3,17.5-0.3c2.2,0,3,4.2,1.5,6.8
			c-0.4,0.7-0.9,1.6-0.7,2.2c3,9.1-2.4,16.4-13.5,17.2c-1.9,0.1-4.9-1.2-5,2.2c0,0.6,3.5,1.6,5.4,1.9c4.1,0.6,8.3,0.5,12.3,1.4
			c5.5,1.3,7.3,4.9,6.3,10.4c-1.3,6.9-6.3,10-12.5,11.9c-1.2,0.4-2.4,0.8-3.6,1.2C327.2,82.4,323.8,82.4,320.3,82.4z M326.7,66.3
			c0,0,0,0.1,0,0.1c-1.1,0-2.4-0.3-3.4,0.1c-1.3,0.5-3.3,1.3-3.4,2.2c-0.2,1.4,0.5,3.4,1.6,4.3c2.4,2.1,10.3,1.8,12.7-0.3
			c0.9-0.8,1.7-2.3,1.6-3.4c-0.1-0.8-1.6-1.9-2.6-2.2C331.1,66.6,328.9,66.5,326.7,66.3z M331.8,40.9c-0.1-3.5-2.5-6.1-5.7-6.1
			c-3,0-5,2.1-4.9,5c0.1,3.4,2.7,6,5.9,5.9C330,45.7,331.9,43.7,331.8,40.9z"/>
		<path d="M118.6,54.1c1.8,0,3.7,0.1,5.5-0.1c2.5-0.2,4.4,0.1,5.6,3c1.3,3.1,10.2,3.7,12.5,1.2c1.4-1.5,0.9-3.8-1.3-4.7
			c-2.2-0.9-4.6-1.4-6.9-2.1c-2.1-0.6-4.2-1.1-6.3-1.8c-4-1.4-7.3-3.4-7.8-8.2c-0.5-5.2,1.3-9.2,5.6-12.1c5.5-3.7,16.2-3.4,21.6,0.5
			c3.1,2.2,4.6,5.3,4.6,9.7c-2.8,0-5.5,0.1-8.2-0.1c-0.6,0-1.3-0.8-1.7-1.4c-2.1-3.2-6.4-4.7-9.8-3c-1,0.5-2.1,1.8-2.2,2.7
			c0,0.9,1.1,2.3,2.1,2.7c2.7,1,5.5,1.5,8.3,2.3c2.1,0.6,4.2,1.1,6.2,2c4,1.7,6.5,4.7,6.6,9.2c0.2,4.9-1.7,9-6.1,11.1
			c-7.2,3.5-14.8,3.6-21.8-0.1c-2.7-1.5-4.4-5-6.5-7.6C118.6,56.4,118.6,55.3,118.6,54.1z"/>
		<path d="M383.7,27.3c-3,8.4-5.9,16.8-8.9,25.2c-2.5,6.9-4.8,13.9-7.5,20.7c-2.4,6-7.8,8.5-13.9,6.9c-0.7-0.2-1.6-1.3-1.7-2
			c-0.3-1.8-0.1-3.6-0.1-5.6c1.1-0.2,1.8-0.4,2.6-0.4c4.8-0.4,6.7-3.4,5.1-8.1c-3.8-11.2-7.7-22.3-11.5-33.5
			c-0.4-1.2-0.7-2.3-1.2-4.1c3.4,0,6.4-0.2,9.3,0.1c0.9,0.1,2,1.7,2.3,2.8c2,6.6,3.9,13.2,5.8,19.8c0.4,1.3,0.8,2.6,1.6,4.9
			c1.1-3.8,1.9-6.7,2.7-9.6c1.4-5.2,2.9-10.4,4.3-15.6c0.5-1.9,1.4-2.7,3.4-2.6c2.6,0.1,5.3,0.2,7.9,0.2
			C383.7,26.8,383.7,27,383.7,27.3z"/>
		<path d="M171.6,17.6c0,1.9,0.1,3.9-0.1,5.8c-0.2,3,0.2,5.1,4.1,4.9c2.9-0.1,1.9,2.5,2.1,4.1c0.2,1.8-0.2,3.3-2.5,3
			c-2.9-0.4-3.7,1-3.6,3.7c0.2,5.4,0.1,10.8,0,16.1c0,2.3,0.6,3.9,3.2,3.7c3.2-0.2,2.8,2.1,3,4.2c0.2,2.4-0.7,3.7-3.2,3.6
			c-1.9-0.1-3.9,0-5.8-0.2c-5.1-0.7-6.8-2.6-6.9-7.7c-0.1-6.6-0.1-13.3,0-19.9c0-2.3-0.3-3.7-3.1-3.7c-0.7,0-1.9-1.3-2.1-2.2
			c-0.4-1.4-0.1-2.9-0.1-4.5c1.1-0.2,1.9-0.5,2.6-0.5c2.2,0.1,2.7-1.2,2.7-3.1c0-2.5,0.1-5,0.2-7.5
			C165.2,17.6,168.4,17.6,171.6,17.6z"/>
		<path d="M261.8,17.6c0.1,2.4,0.2,4.8,0.1,7.2c-0.1,2.2,0.6,3.6,3.1,3.3c3.2-0.3,3,1.7,3.1,3.9c0.1,2.5-0.6,3.8-3.3,3.4
			c-2.3-0.3-3,0.9-2.9,3c0.1,5.5,0.1,11,0,16.5c0,2.6,0.8,4.2,3.7,4.1c2.7-0.1,2.5,1.8,2.4,3.5c-0.1,1.7,0.7,4.1-2.2,4.1
			c-3,0-6,0-8.9-0.6c-3.6-0.7-4.8-3.6-4.8-7c0-6.3,0-12.6,0-18.9c0-1.4,0-2.7,0-4.2c-0.9-0.2-1.4-0.4-1.9-0.4
			c-2.1,0.1-3.6-0.4-3.4-3c0.2-2.1-0.5-4.5,3-4.5c0.8,0,2.1-1.6,2.2-2.5c0.3-2.6,0.1-5.3,0.1-7.9C255.4,17.6,258.6,17.6,261.8,17.6z
			"/>
		<path d="M308.3,55.1c-1.3,5.2-4.1,8.2-7.9,10.3c-13.3,7.3-28.7-1.5-28.9-16.7c0-2.5,0.1-5.1,0.6-7.5c2.2-10.4,11.1-15.9,22.5-13.9
			c9.2,1.6,15.4,10.8,14.2,20.6c-0.3,2.2-1.7,2.1-3.2,2.1c-6.9,0-13.8,0-20.6,0c-3.4,0-4,1-2.7,4.2c2.1,5,9.8,7.4,13.6,3.4
			C299.6,53.9,303.5,55.4,308.3,55.1z M298,43c-0.2-4.8-2.9-7.4-7.4-7.6c-5.1-0.2-7.9,2.3-8.4,7.6C287.4,43,292.6,43,298,43z"/>
		<path d="M243.5,66.1c-7,1.4-9.7,0.7-11-3.4c-1.4,1-2.8,2-4.2,2.8c-4.9,2.9-11.5,2.7-15.6-0.6c-3.4-2.8-4.7-7.9-3.2-12.9
			c1.2-4.2,4.2-6.5,8.2-7.5c3.6-0.9,7.2-1.3,10.8-2c2-0.4,3.9-1.1,3.7-3.7c-0.1-2.7-2.1-3.3-4.3-3.5c-3.3-0.3-6.5-0.3-8,3.6
			c-0.3,0.6-1.3,1.3-2.1,1.3c-2.4,0.2-4.8,0.1-7.1,0.1c-0.7-5.2,1.9-9.9,6.8-11.7c6.6-2.5,13.3-2.2,19.7,0.8c4.1,2,5,5.8,5.1,9.8
			c0.1,5.8-0.1,11.7,0.1,17.6C242.5,59.9,243.1,62.8,243.5,66.1z M231.9,48.4c-3.3,0.8-6.5,1.4-9.5,2.3c-2.9,0.9-4,3.4-3.2,6.3
			c0.8,2.7,3,3.3,5.4,3.1C230.5,59.7,233.1,55.7,231.9,48.4z"/>
		<path d="M193.3,33.3c1.9-1.8,3.4-3.7,5.4-4.9c4.8-2.9,7.1-1.5,7.1,3.9c0,4.7,0,4.7-4.7,5.2c-4,0.4-6.6,2.3-6.9,6.3
			c-0.5,6.1-0.3,12.3-0.6,18.5c-0.1,1.3-0.6,3.7-1.1,3.8c-2.7,0.3-5.4,0-8.1-0.3c-0.3,0-0.6-1.6-0.6-2.5c0-10.8,0-21.5-0.1-32.3
			c0-2.4,0.8-3.4,3.2-3.2c0.8,0.1,1.6,0.1,2.4,0c2.8-0.4,4.1,0.7,3.7,3.6C193.1,32.1,193.2,32.6,193.3,33.3z"/>
	</g>
</g>
<g>
	<path d="M50,89C26.9,89,8,70.2,8,47S26.9,5,50,5s42,18.8,42,42S73.2,89,50,89z M50,16.7c-16.7,0-30.3,13.6-30.3,30.3
		S33.3,77.3,50,77.3S80.4,63.7,80.4,47S66.8,16.7,50,16.7z"/>
</g>
<g>
	<circle cx="37.9" cy="35.2" r="10.3"/>
	<circle cx="62.2" cy="35.2" r="10.3"/>
	<circle cx="37.9" cy="58.8" r="10.3"/>
	<circle cx="62.2" cy="58.8" r="10.3"/>
</g>
</svg>
