<?xml version="1.0" encoding="utf-8"?>
<!-- Generator: Adobe Illustrator 24.2.0, SVG Export Plug-In . SVG Version: 6.00 Build 0)  -->
<svg version="1.1" xmlns="http://www.w3.org/2000/svg" xmlns:xlink="http://www.w3.org/1999/xlink" x="0px" y="0px"
	 viewBox="0 0 1205.5 144.4" style="enable-background:new 0 0 1205.5 144.4;" xml:space="preserve">
<style type="text/css">
	.st0{fill:#61DAFB;}
	.st1{fill:#F7DF1E;}
	.st2{fill:#FFFFFF;}
	.st3{fill:#E44D26;}
	.st4{fill:#F16529;}
	.st5{fill:#EBEBEB;}
	.st6{fill:#41B883;}
	.st7{fill:#34495E;}
	.st8{fill:#0170BA;}
	.st9{fill:#29A9DF;}
	.st10{fill:#CFCFCF;}
	.st11{fill:none;}
	.st12{clip-path:url(#SVGID_2_);}
	.st13{fill:#FFA000;}
	.st14{opacity:0.12;fill:url(#SVGID_3_);enable-background:new    ;}
	.st15{fill:#F57C00;}
	.st16{opacity:0.2;fill:url(#SVGID_4_);enable-background:new    ;}
	.st17{fill:#FFCA28;}
	.st18{fill:#FFFFFF;fill-opacity:0.2;}
	.st19{opacity:0.2;fill:#A52714;enable-background:new    ;}
	.st20{fill:url(#SVGID_5_);}
</style>
<g id="Layer_2">
</g>
<g id="Layer_1">
	<g>
		<path class="st0" d="M618.4,72.2c0-10.1-12.6-19.6-31.9-25.5C591,27,589,11.4,580.3,6.3c-2-1.2-4.4-1.7-6.9-1.7v6.9
			c1.4,0,2.6,0.3,3.5,0.8c4.2,2.4,6,11.6,4.6,23.4c-0.3,2.9-0.9,6-1.6,9.1c-6.1-1.5-12.7-2.6-19.7-3.4c-4.2-5.7-8.5-10.9-12.9-15.5
			c10.1-9.4,19.6-14.5,26-14.5V4.6l0,0c-8.5,0-19.7,6.1-30.9,16.6C531.2,10.7,520,4.7,511.5,4.7v6.9c6.4,0,15.9,5.1,26,14.4
			c-4.3,4.5-8.7,9.7-12.8,15.4c-7,0.7-13.6,1.9-19.7,3.4c-0.7-3.1-1.2-6.1-1.6-9c-1.5-11.8,0.3-21,4.5-23.5c0.9-0.6,2.1-0.8,3.6-0.8
			V4.7l0,0c-2.6,0-5,0.6-7,1.7c-8.7,5-10.6,20.6-6.2,40.3c-19.3,5.9-31.8,15.4-31.8,25.5s12.6,19.6,31.9,25.5
			c-4.5,19.7-2.5,35.3,6.3,40.4c2,1.2,4.4,1.7,7,1.7c8.5,0,19.7-6.1,30.9-16.6c11.3,10.5,22.4,16.5,30.9,16.5c2.6,0,5-0.6,7-1.7
			c8.7-5,10.6-20.6,6.2-40.3C605.9,91.8,618.4,82.2,618.4,72.2z M578.1,51.6c-1.1,4-2.6,8.1-4.2,12.2c-1.3-2.5-2.6-5-4.1-7.4
			c-1.4-2.5-2.9-4.9-4.5-7.2C569.8,49.8,574.1,50.6,578.1,51.6z M563.9,84.5c-2.4,4.2-4.9,8.1-7.5,11.8c-4.6,0.4-9.3,0.6-14,0.6
			s-9.3-0.2-13.9-0.6c-2.6-3.7-5.1-7.6-7.5-11.8c-2.4-4.1-4.5-8.2-6.4-12.3c1.9-4.1,4.1-8.3,6.4-12.3c2.4-4.2,4.9-8.1,7.5-11.8
			c4.6-0.4,9.3-0.6,14-0.6s9.3,0.2,13.9,0.6c2.6,3.7,5.1,7.6,7.5,11.8c2.4,4.1,4.5,8.2,6.4,12.3C568.4,76.3,566.3,80.5,563.9,84.5z
			 M573.9,80.5c1.7,4.1,3.1,8.3,4.3,12.3c-4.1,1-8.3,1.8-12.8,2.5c1.5-2.4,3-4.8,4.5-7.3C571.3,85.5,572.7,83,573.9,80.5z
			 M542.6,113.5c-2.9-3-5.8-6.3-8.6-9.9c2.8,0.1,5.6,0.2,8.5,0.2s5.8-0.1,8.6-0.2C548.3,107.2,545.4,110.6,542.6,113.5z M519.5,95.3
			c-4.4-0.6-8.6-1.5-12.7-2.4c1.1-4,2.6-8.1,4.2-12.2c1.3,2.5,2.6,5,4.1,7.4C516.5,90.5,518,92.9,519.5,95.3z M542.4,30.9
			c2.9,3,5.8,6.3,8.6,9.9c-2.8-0.1-5.6-0.2-8.5-0.2s-5.8,0.1-8.6,0.2C536.7,37.2,539.6,33.9,542.4,30.9z M519.5,49.1
			c-1.5,2.4-3,4.8-4.5,7.3c-1.4,2.5-2.8,5-4,7.4c-1.7-4.1-3.1-8.3-4.3-12.3C510.8,50.6,515.1,49.8,519.5,49.1z M491.5,87.9
			c-11-4.7-18-10.8-18-15.7s7.1-11,18-15.7c2.7-1.1,5.6-2.2,8.6-3.1c1.8,6.1,4.1,12.4,7,18.8c-2.8,6.4-5.1,12.7-6.9,18.8
			C497.1,90.1,494.2,89,491.5,87.9z M508.1,132.1c-4.2-2.4-6-11.6-4.6-23.4c0.3-2.9,0.9-6,1.6-9.1c6.1,1.5,12.7,2.6,19.7,3.4
			c4.2,5.7,8.5,10.9,12.9,15.5c-10.1,9.4-19.6,14.5-26,14.5C510.2,132.9,509.1,132.6,508.1,132.1z M581.6,108.5
			c1.5,11.8-0.3,21-4.5,23.5c-0.9,0.6-2.1,0.8-3.6,0.8c-6.4,0-15.9-5.1-26-14.4c4.3-4.5,8.7-9.7,12.8-15.4c7-0.7,13.6-1.9,19.7-3.4
			C580.7,102.6,581.2,105.6,581.6,108.5z M593.5,87.9c-2.7,1.1-5.6,2.2-8.6,3.1c-1.8-6.1-4.1-12.4-7-18.8c2.8-6.4,5.1-12.7,6.9-18.8
			c3.1,1,6,2,8.7,3.2c11,4.7,18,10.8,18,15.7C611.5,77.1,604.4,83.2,593.5,87.9z"/>
		<path class="st0" d="M511.5,4.7L511.5,4.7L511.5,4.7z"/>
		<circle class="st0" cx="542.5" cy="72.2" r="14.1"/>
		<path class="st0" d="M573.3,4.6L573.3,4.6L573.3,4.6z"/>
	</g>
	<g>
		<rect x="293.2" y="8.9" class="st1" width="126.5" height="126.5"/>
		<path d="M378.2,107.8c2.5,4.2,5.9,7.2,11.7,7.2c4.9,0,8.1-2.5,8.1-5.9c0-4.1-3.2-5.5-8.7-7.9l-3-1.3C377.7,96.2,372,91.7,372,82
			c0-8.9,6.8-15.7,17.4-15.7c7.6,0,13,2.6,16.9,9.5l-9.3,5.9c-2-3.7-4.2-5.1-7.7-5.1s-5.7,2.2-5.7,5.1c0,3.6,2.2,5,7.3,7.2l3,1.3
			c10.1,4.3,15.8,8.7,15.8,18.7c0,10.7-8.4,16.6-19.7,16.6c-11,0-18.2-5.3-21.7-12.2L378.2,107.8z M336.2,108.8
			c1.9,3.3,3.6,6.1,7.7,6.1c3.9,0,6.4-1.5,6.4-7.5V67h11.9v40.6c0,12.3-7.2,17.9-17.8,17.9c-9.5,0-15-4.9-17.8-10.9L336.2,108.8z"/>
	</g>
	<g id="Page-1">
		<g id="Black-Next.js" transform="translate(-247.000000, -138.000000)">
			<g id="next-black" transform="translate(247.000000, 138.000000)">
				<g id="EXT-_x2B_-Type-something">
					<path id="EXT" class="st2" d="M710.9,37.7h45.4v3.6h-41.2v27h38.7v3.6h-38.7v29.6h41.7v3.6H711V37.7H710.9z M760.4,37.7h4.8
						l21.4,29.6l21.8-29.6L838,0l-48.8,70.4l25.1,34.7h-5l-22.9-31.5l-23,31.5h-4.9L784,70.4L760.4,37.7z M816.2,41.2v-3.6h51.7v3.6
						h-23.8V105h-4.2V41.2H816.2z"/>
					<polygon id="Type-something" class="st2" points="654.2,37.7 659.4,37.7 731,144.4 701.4,105.1 658.5,42.8 658.3,105.1 
						654.2,105.1 					"/>
				</g>
				<path id="_x2E_JS" class="st2" d="M867.5,100.4c0.9,0,1.5-0.7,1.5-1.5s-0.6-1.5-1.5-1.5c-0.8,0-1.5,0.7-1.5,1.5
					S866.6,100.4,867.5,100.4z M871.6,96.4c0,2.5,1.8,4.1,4.4,4.1c2.8,0,4.5-1.7,4.5-4.6V85.7h-2.3V96c0,1.6-0.8,2.5-2.3,2.5
					c-1.3,0-2.2-0.8-2.2-2L871.6,96.4L871.6,96.4z M883.5,96.3c0.2,2.6,2.3,4.3,5.6,4.3c3.5,0,5.6-1.7,5.6-4.5
					c0-2.2-1.2-3.4-4.2-4.1l-1.6-0.4c-1.9-0.4-2.7-1-2.7-2.1c0-1.3,1.2-2.2,3-2.2c1.7,0,2.9,0.8,3.1,2.2h2.2
					c-0.1-2.4-2.3-4.2-5.3-4.2c-3.2,0-5.3,1.7-5.3,4.3c0,2.1,1.2,3.4,3.8,4l1.9,0.5c1.9,0.5,2.8,1.1,2.8,2.2c0,1.3-1.3,2.2-3.2,2.2
					c-2,0-3.3-0.9-3.5-2.3L883.5,96.3L883.5,96.3z"/>
			</g>
		</g>
	</g>
	<g>
		<path class="st2" d="M9.2,2.7h6.2v6.2h5.8V2.7h6.2v18.7h-6.2v-6.2h-5.7v6.2H9.2 M35.7,8.9h-5.5V2.7h17.3v6.2H42v12.5h-6.2
			 M50.2,2.7h6.5l4,6.6l4-6.6h6.5v18.7H65v-9.3l-4.4,6.7l-4.4-6.7v9.3h-6.1 M74.5,2.7h6.2v12.5h8.9v6.2H74.5"/>
		<path class="st3" d="M9,130.6L0,30h98.6l-9,100.6l-40.4,11.2"/>
		<path class="st4" d="M49.3,133.2v-95h40.3L81.9,124"/>
		<path class="st5" d="M18.3,50.5h31v12.3H31.8L33,75.5h16.3v12.3H21.7 M22.2,94h12.4l0.9,9.9l13.8,3.7v12.9L24,113.4"/>
		<path class="st2" d="M80.1,50.5H49.2v12.3H79 M77.9,75.5H49.2v12.3h15.2l-1.4,16l-13.8,3.7v12.8l25.3-7"/>
	</g>
	<g transform="matrix(1.3333 0 0 -1.3333 -76.311 313.34)">
		<g transform="translate(178.06 235.01)">
			<path class="st6" d="M628-13.2l-10.9-18.9l-10.9,18.9h-36.4l47.3-82l47.3,82C664.4-13.2,628-13.2,628-13.2z"/>
		</g>
		<g transform="translate(178.06 235.01)">
			<path class="st7" d="M628-13.2l-10.9-18.9l-10.9,18.9h-17.5l28.4-49.2l28.4,49.2C645.5-13.2,628-13.2,628-13.2z"/>
		</g>
	</g>
	<g>
		<g id="_x23_000000ff">
			<path class="st2" d="M158.6,2.6c6.1-0.1,12.2,0,18.3,0c0,1.9,0,3.8,0,5.7c-4.2,0-8.5,0-12.7,0c0,2.8-0.1,5.5-0.1,8.3
				c4.2,0,8.5,0.1,12.7,0c0,1.6,0,3.1,0,4.7c-6.1,0-12.2,0-18.3,0C158.7,15.1,158.7,8.8,158.6,2.6z"/>
			<path class="st2" d="M179.1,2.6c6.2,0,12.4,0,18.5,0c0,1.8,0,3.6,0,5.4c-4.5,0-9,0-13.5,0.1c0,0.7,0,1.4,0,2.1
				c4.5,0.1,9,0.1,13.5,0.1c0,3.7,0,7.4,0,11.1c-6.2,0-12.4,0-18.6,0c0-1.5,0-3,0-4.5c4.3,0,8.6,0,12.9,0c0-1,0-1.9,0-2.9
				c-4.3,0-8.6,0-12.9,0C179.1,10.2,179.1,6.4,179.1,2.6z"/>
			<path class="st2" d="M199.8,2.6c6.2,0,12.3,0,18.5,0c0,1.8,0.1,3.6,0,5.4c-4.5,0-9,0-13.6,0c0,0.7,0,1.5,0.1,2.2
				c4.5,0,9,0,13.5,0.1c0,3.7,0.1,7.4,0,11.1c-6.2,0-12.4,0-18.6,0c0-1.5,0-3,0-4.5c4.3,0,8.6,0,12.8,0c0-1,0-1.9,0-2.9
				c-4.3,0-8.6,0-12.9,0C199.7,10.2,199.7,6.4,199.8,2.6z"/>
		</g>
		<g id="_x23_0170baff">
			<path class="st8" d="M138.8,29.2c33.1,0,66.2,0,99.4,0c-1.8,20.6-3.6,41.2-5.5,61.8c-1.1,13.2-2.3,26.3-3.5,39.5
				c-7.1,1.9-14.1,4-21.1,5.9c-6.5,1.9-13,3.6-19.5,5.5h-0.2c-6.2-1.8-12.4-3.5-18.6-5.3c-7.3-2-14.5-4.2-21.8-6.1
				c-1-9.9-1.8-19.7-2.7-29.6c-1.6-18.2-3.3-36.4-4.9-54.7c-0.5-5.5-0.9-11-1.5-16.5v-0.5 M188.6,37.3c-0.1,4,0.1,7.9-0.1,11.9
				c-11.4,0-22.7,0-34.1,0c0.2,3.8,0.7,7.7,1.2,11.5c10.6,0.4,21.2,0,31.7,0.3c-9.2,4.1-18.6,8.1-27.9,12.1
				c-0.8,0.4-1.6,0.6-2.4,1.1c0.1,4.2,0.8,8.4,1.1,12.6c5.6,0,11.3-0.1,16.9-0.1c4.5,0,9,0.1,13.5,0c-0.2,6.9,0.1,13.9-0.1,20.8
				c-3-0.5-6-1.1-9.1-1.7c-2.4-0.5-4.8-0.8-7.2-1.5c-0.3-3.3-0.6-6.7-0.9-10c-0.7-0.2-1.4-0.2-2.1-0.2c-3.4,0-6.8,0-10.2,0
				c0.3,6.4,0.9,12.8,1.9,19.1c3.4,0.9,6.7,1.7,10.1,2.7c5.1,1.4,10.4,2.6,15.5,3.9c0.6,0.1,1.2,0.4,1.9,0.3
				c0.3,4.2,0.1,8.5,0.1,12.7c1.2-0.2,2.4-0.5,3.5-0.8c9.8-2.7,19.5-5.4,29.3-8c0.5-3.8,0.7-7.7,1.1-11.5c1-11.7,2-23.4,3.1-35.1
				c1.2-13.4,2.3-26.8,3.6-40.1C215.6,37.3,202.1,37.3,188.6,37.3z"/>
		</g>
		<g id="_x23_29a9dfff">
			<path class="st9" d="M188.6,37.3c13.5,0,27,0,40.5,0c-1.3,13.4-2.3,26.8-3.6,40.1c-1.1,11.7-2.1,23.4-3.1,35.1
				c-0.4,3.8-0.6,7.7-1.1,11.5c-9.8,2.7-19.5,5.4-29.3,8c-1.1,0.4-2.3,0.6-3.5,0.8c-0.1-4.2,0.2-8.5-0.1-12.7c0.1,0,0.3-0.1,0.4-0.1
				c9.1-2.3,18.1-4.8,27.2-7.1c1.1-12.9,2.4-25.7,3.2-38.6c-7.7,0-15.4,0-23.1,0c-1.1,0-2.2,0-3.4-0.1c4.1-2.1,8.5-3.8,12.8-5.7
				c4.1-1.9,8.2-3.6,12.3-5.4c0.8-0.4,1.6-0.7,2.3-1.2c0.3-1,0.3-2.1,0.4-3.1c0.2-3.3,0.7-6.5,0.8-9.8c-10.9-0.1-21.8,0-32.7-0.1
				C188.7,45.2,188.5,41.3,188.6,37.3z"/>
			<path class="st9" d="M188.7,86.7c5.3-0.1,10.5,0.1,15.8,0c-0.3,5.4-0.7,10.8-1,16.2c-3.2,1.1-6.5,1.9-9.8,2.9
				c-1.7,0.5-3.5,0.9-5.2,1.7C188.7,100.6,188.4,93.6,188.7,86.7z"/>
		</g>
		<g id="_x23_cfcfcfff">
			<path class="st10" d="M154.4,49.2c11.4,0,22.7,0,34.1,0c0.1,12.5,0,25,0.1,37.5c-4.5,0.1-9,0-13.5,0c-5.6,0-11.3,0.1-16.9,0.1
				c-0.3-4.2-1-8.4-1.1-12.6c0.7-0.5,1.6-0.8,2.4-1.1c9.3-4.1,18.7-8,27.9-12.1c-10.6-0.3-21.2,0.1-31.7-0.3
				C155.2,56.8,154.6,53,154.4,49.2z"/>
			<path class="st10" d="M159.1,94.2c3.4-0.1,6.8,0,10.2,0c0.7,0,1.4,0,2.1,0.2c0.3,3.3,0.5,6.7,0.9,10c2.4,0.7,4.8,1,7.2,1.5
				c3,0.5,6,1.2,9.1,1.7c0.3,4.2-0.2,8.5,0.3,12.7c-0.1,0-0.3,0.1-0.4,0.1c-0.6,0.1-1.3-0.2-1.9-0.3c-5.2-1.4-10.4-2.5-15.5-3.9
				c-3.4-0.9-6.7-1.8-10.1-2.7C160,107,159.4,100.6,159.1,94.2z"/>
		</g>
		<g id="_x23_ffffffff">
			<path class="st2" d="M188.5,49.2c10.9,0.1,21.8,0,32.7,0.1c-0.2,3.3-0.6,6.5-0.8,9.8c-0.1,1-0.1,2.1-0.4,3.1
				c-0.7,0.5-1.5,0.8-2.3,1.2c-4.1,1.8-8.2,3.6-12.3,5.4c-4.3,1.9-8.6,3.6-12.8,5.7c1.1,0.1,2.2,0.1,3.4,0.1c7.7,0,15.4,0,23.1,0
				c-0.8,12.9-2.1,25.7-3.2,38.6c-9.1,2.4-18.1,4.9-27.2,7.1c-0.5-4.2,0-8.5-0.3-12.7c1.7-0.8,3.4-1.2,5.2-1.7
				c3.3-1,6.5-1.9,9.8-2.9c0.3-5.4,0.7-10.8,1-16.2c-5.3,0-10.5-0.1-15.8,0C188.5,74.2,188.7,61.7,188.5,49.2z"/>
		</g>
	</g>
	<g id="Layer_1_1_">
		<g>
			<g id="XMLID_19_">
				<rect id="XMLID_21_" x="1062.8" y="0.8" class="st11" width="142.8" height="142.8"/>
				<g>
					<g>
						<g>
							<defs>
								<path id="SVGID_1_" d="M1169.5,36.1c-0.3-1.6-1.8-2.7-3.4-2.5c-0.6,0.1-1.2,0.4-1.6,0.8L1149,49.9l-12.1-23.1
									c-0.7-1.5-2.5-2-4-1.3c-0.5,0.3-1,0.7-1.3,1.3l-6.6,12.6l-16.7-31.1c-0.7-1.4-2.6-2-4-1.2c-0.8,0.4-1.4,1.3-1.6,2.2
									l-16.1,103.1l43.1,24.2c2.7,1.5,6,1.5,8.7,0l43.4-24.2L1169.5,36.1z"/>
							</defs>
							<clipPath id="SVGID_2_">
								<use xlink:href="#SVGID_1_"  style="overflow:visible;"/>
							</clipPath>
							<g class="st12">
								<path class="st13" d="M1086.6,112.3l16.1-103.1c0.2-1.6,1.8-2.8,3.4-2.5c0.9,0.1,1.7,0.7,2.2,1.6l16.7,31.1l6.6-12.6
									c0.7-1.5,2.5-2,4-1.3c0.5,0.3,1,0.7,1.3,1.3l44.9,85.5H1086.6z"/>
								
									<linearGradient id="SVGID_3_" gradientUnits="userSpaceOnUse" x1="1105.115" y1="-681.0795" x2="1099.1665" y2="-677.9715" gradientTransform="matrix(1 0 0 -1 0 -604.0064)">
									<stop  offset="0" style="stop-color:#A52714"/>
									<stop  offset="0.4" style="stop-color:#A52714;stop-opacity:0.5"/>
									<stop  offset="0.8" style="stop-color:#A52714;stop-opacity:0"/>
								</linearGradient>
								<path class="st14" d="M1141.6,7.5l-78.8-6.7v142.8l23.8-31.2L1141.6,7.5z"/>
								<path class="st15" d="M1142.3,72.2L1125,39.4l-38.4,72.9L1142.3,72.2z"/>
								
									<linearGradient id="SVGID_4_" gradientUnits="userSpaceOnUse" x1="1130.4058" y1="-672.412" x2="1127.7439" y2="-669.7501" gradientTransform="matrix(1 0 0 -1 0 -604.0064)">
									<stop  offset="0" style="stop-color:#A52714;stop-opacity:0.8"/>
									<stop  offset="0.5" style="stop-color:#A52714;stop-opacity:0.21"/>
									<stop  offset="1" style="stop-color:#A52714;stop-opacity:0"/>
								</linearGradient>
								<path class="st16" d="M1062.8,0.8h142.8v142.8h-142.8V0.8z"/>
								<path class="st17" d="M1181.7,112.3L1169.4,36c-0.3-1.6-1.8-2.7-3.4-2.5c-0.6,0.1-1.2,0.4-1.6,0.8l-77.8,78l43.1,24.2
									c2.7,1.5,6,1.5,8.7,0L1181.7,112.3z"/>
								<path class="st18" d="M1169.5,36.1c-0.3-1.6-1.8-2.7-3.4-2.5c-0.6,0.1-1.2,0.4-1.6,0.8L1149,49.9l-12.1-23.1
									c-0.7-1.5-2.5-2-4-1.3c-0.5,0.3-1,0.7-1.3,1.3l-6.6,12.6l-16.7-31.1c-0.7-1.4-2.6-2-4-1.2c-0.8,0.4-1.4,1.3-1.6,2.2
									l-16.1,103.1h-0.1l0.1,0.1l0.4,0.2l61.9-62l15.5-15.5c1.2-1.2,3-1.2,4.2,0c0.4,0.4,0.7,1,0.8,1.6l12.2,75.6l0.1-0.1
									L1169.5,36.1z M1086.7,112.2l16-102.2c0.2-1.6,1.8-2.8,3.4-2.5c0.9,0.1,1.7,0.7,2.2,1.6l16.7,31.1l6.6-12.6
									c0.7-1.5,2.5-2,4-1.3c0.5,0.3,1,0.7,1.3,1.3l11.9,22.6L1086.7,112.2z"/>
								<path class="st19" d="M1138.3,135.8c-2.7,1.5-6,1.5-8.7,0l-43-24.1l-0.1,0.7l43.1,24.2c2.7,1.5,6,1.5,8.7,0l43.4-24.2
									l-0.1-0.7L1138.3,135.8z"/>
								
									<linearGradient id="SVGID_5_" gradientUnits="userSpaceOnUse" x1="-596.5955" y1="1690.8787" x2="-559.366" y2="1728.1083" gradientTransform="matrix(2.67 0 0 2.67 2676.9011 -4484.8369)">
									<stop  offset="0" style="stop-color:#FFFFFF;stop-opacity:0.1"/>
									<stop  offset="1" style="stop-color:#FFFFFF;stop-opacity:0"/>
								</linearGradient>
								<path class="st20" d="M1169.5,36.1c-0.3-1.6-1.8-2.7-3.4-2.5c-0.6,0.1-1.2,0.4-1.6,0.8L1149,49.9l-12.1-23.1
									c-0.7-1.5-2.5-2-4-1.3c-0.5,0.3-1,0.7-1.3,1.3l-6.6,12.6l-16.7-31.1c-0.7-1.4-2.6-2-4-1.2c-0.8,0.4-1.4,1.3-1.6,2.2
									l-16.1,103.1l43.1,24.2c2.7,1.5,6,1.5,8.7,0l43.4-24.2L1169.5,36.1z"/>
							</g>
						</g>
					</g>
				</g>
			</g>
		</g>
	</g>
</g>
</svg>
