<?xml version="1.0" encoding="utf-8"?>
<!-- Generator: Adobe Illustrator 24.2.0, SVG Export Plug-In . SVG Version: 6.00 Build 0)  -->
<svg version="1.1" id="Layer_1" xmlns="http://www.w3.org/2000/svg" xmlns:xlink="http://www.w3.org/1999/xlink" x="0px" y="0px"
	 viewBox="0 0 141.4 40.7" style="enable-background:new 0 0 141.4 40.7;" xml:space="preserve">
<path d="M36.1,34.2c-0.6-0.4-1.4-0.6-2.1-0.6c-1.4,0-2.6,1.1-2.7,2.6c0,0.1,0,0.2,0,0.2c-0.1,1.7,1.2,3.1,2.8,3.2c0,0,0.1,0,0.1,0
	c0.9,0,1.7-0.3,2.4-0.7l0,0l-0.6,1.3c-0.5,0.2-1.1,0.4-1.7,0.3c-2.7,0-4.4-1.5-4.4-3.9c-0.1-2.1,1.5-3.8,3.6-3.9c0.1,0,0.3,0,0.4,0
	c0.7,0,1.4,0.1,2.1,0.3L36.1,34.2z"/>
<path d="M51,36.5c0,2.2-1.9,4-4.1,4c0,0,0,0-0.1,0c-2.2,0.1-4.1-1.6-4.2-3.8c0-0.1,0-0.1,0-0.2c0.1-2.2,2-4,4.2-3.9c0,0,0.1,0,0.1,0
	c2.2-0.1,4,1.6,4.1,3.8C51,36.4,51,36.5,51,36.5z M43.9,36.5c-0.1,1.7,1.2,3.2,2.9,3.2c1.5,0,2.8-1.2,2.8-2.7c0-0.1,0-0.2,0-0.3
	c0.2-1.7-1.1-3.1-2.7-3.3c-0.1,0-0.1,0-0.2,0c-1.6-0.1-2.9,1.2-2.9,2.7C43.9,36.3,43.9,36.4,43.9,36.5L43.9,36.5z"/>
<path d="M62.6,39.6c-0.6,0.6-1.4,1-2.2,0.9c-0.8,0-1.5-0.3-2.1-0.8c-0.5-0.6-0.7-1.5-0.6-2.2v-3c0-0.5,0.1-1.4-0.5-1.6l0,0h2.2l0,0
	c-0.6,0.2-0.5,1.1-0.5,1.6v3c0,1.5,0.6,2.2,1.8,2.2c0.7,0,1.3-0.3,1.7-0.8c0.2-0.3,0.3-0.6,0.2-1v-3.4c0-0.5,0.1-1.4-0.5-1.6l0,0
	h2.2l0,0c-0.6,0.2-0.5,1.1-0.5,1.6v4.3c0,0.5-0.1,1.4,0.5,1.6l0,0h-1.7L62.6,39.6z"/>
<path d="M72.2,38.9c0,0.6,0,1.1,0.6,1.4l0,0h-2l0,0c0.6-0.4,0.6-0.8,0.6-1.4v-4.6c0-0.6,0-1.1-0.6-1.4l0,0h1.7
	c0,0.1,0.1,0.2,0.2,0.3l0.2,0.2l4.2,5.3v-4.3c0-0.6,0-1.1-0.6-1.4l0,0h2l0,0c-0.6,0.4-0.6,0.8-0.6,1.4v6.4c-0.7-0.2-1.3-0.7-1.7-1.3
	l-3.9-5L72.2,38.9z"/>
<path d="M90.7,34.2c-0.6-0.4-1.4-0.6-2.1-0.6c-1.5,0-2.7,1.1-2.7,2.6c0,0.1,0,0.2,0,0.2c-0.1,1.7,1.2,3.1,2.8,3.2c0,0,0.1,0,0.1,0
	c0.9,0,1.7-0.3,2.4-0.7l0,0l-0.6,1.3c-0.5,0.2-1.1,0.4-1.7,0.3c-2.7,0-4.4-1.5-4.4-3.9c-0.1-2.1,1.5-3.8,3.6-3.9c0.1,0,0.2,0,0.4,0
	c0.7,0,1.4,0.1,2.1,0.3L90.7,34.2z"/>
<path d="M97.9,34.4c0-0.5,0.1-1.4-0.5-1.6l0,0h2.2l0,0C99,33.1,99,33.9,99,34.4v4.3c0,0.5-0.1,1.4,0.5,1.6l0,0h-2.1l0,0
	c0.6-0.2,0.5-1,0.5-1.6L97.9,34.4z"/>
<path d="M109.3,39.5c0.7,0,1.4-0.2,2-0.7l0,0l-0.6,1.5h-4.6l0,0c0.6-0.2,0.5-1,0.5-1.6v-4.3c0-0.5,0.1-1.4-0.5-1.6l0,0h2.2l0,0
	c-0.6,0.2-0.5,1.1-0.5,1.6v5L109.3,39.5z"/>
<path d="M58,2.3c-0.9-0.6-1.9-0.9-3-0.9c-2.1,0-3.8,1.6-3.8,3.7c0,0.1,0,0.2,0,0.3c-0.2,2.4,1.6,4.4,4,4.5c0.1,0,0.1,0,0.2,0
	c1.2,0,2.4-0.4,3.5-1h0.1L58,10.8c-0.8,0.3-1.6,0.5-2.5,0.5c-3.9,0-6.2-2.1-6.2-5.7c-0.1-3,2.2-5.5,5.2-5.6c0.2,0,0.4,0,0.6,0
	c1,0,2,0.2,3,0.4L58,2.3z"/>
<path d="M60.1,2.6c0-0.8,0.1-1.9-0.7-2.2V0.3h3.1v0.1c-0.8,0.3-0.7,1.5-0.7,2.2v6.2c0,0.7-0.1,1.9,0.7,2.2l0,0h-3.1l0,0
	c0.8-0.3,0.7-1.5,0.7-2.2V2.6z"/>
<path d="M67.5,8.9c0,0.9,0,1.6,0.9,2.1l0,0h-3.2l0,0c0.8-0.3,0.7-1.5,0.7-2.2V1.4h-1.4c-0.7,0-1.4,0.2-1.9,0.7h-0.1L63,0.1l0,0
	c0.2,0.1,0.4,0.1,0.6,0.1h6.5c0.3,0,0.5,0,0.8-0.1h0.1l-0.5,1.9l0,0c-0.2-0.6-0.9-0.7-1.4-0.7h-1.5L67.5,8.9z"/>
<path d="M75.9,8.9c0,1,0,1.5,0.8,2.1l0,0h-3.2l0,0c0.8-0.4,0.7-1.5,0.7-2.2V6.3l-2.7-4.4c-0.3-0.7-0.9-1.3-1.6-1.7h1.5
	c0.5-0.1,0.9,0.1,1.2,0.5L75.3,5l2-3c0.3-0.4,0.6-1.2-0.3-1.6V0.3h2.9l-4,6L75.9,8.9z"/>
<path d="M5.5,26.9c-1.5-1.1-1.6-1-2.2-2.6l-1.9-6c-0.2-1-0.6-1.8-1.3-2.5v-0.1h2.4c0,0.4,0.1,0.8,0.2,1.2L5,24.4L7,18.2
	c0.3-1,0.6-2.1-0.3-2.5v-0.1H9c-0.1,0.6,0,1.1,0.2,1.6l2.3,7.1l1.8-6c0.3-0.9,0.8-2.3-0.4-2.7v-0.1h2.5L12,26.9
	c-1.5-1-1.6-0.9-2.2-2.6L8,18.6L5.5,26.9z"/>
<path d="M27.7,20.9c0,3.2-2.7,5.8-5.9,5.8c0,0-0.1,0-0.1,0c-3.2,0.2-5.8-2.3-6-5.4c0-0.1,0-0.2,0-0.2c0.1-3.2,2.8-5.7,6-5.6
	c0.1,0,0.1,0,0.2,0c3.1-0.1,5.7,2.3,5.9,5.4C27.7,20.8,27.7,20.8,27.7,20.9z M17.6,20.8c0,2.3,1.6,4.6,4.2,4.6c2.2,0,4-1.7,4.1-3.9
	c0-0.1,0-0.2,0-0.3c0-2.4-1.5-4.7-4.1-4.7c-2.2-0.1-4.1,1.6-4.2,3.8C17.6,20.5,17.6,20.6,17.6,20.8L17.6,20.8z"/>
<path d="M33.4,25.2c1.1,0.1,2.1-0.3,2.9-1l0,0l-0.8,2.2h-6.6v-0.1c0.8-0.3,0.7-1.5,0.7-2.2v-6.2c0-0.8,0.1-1.9-0.7-2.3v-0.1h3.1v0.1
	c-0.8,0.3-0.7,1.5-0.7,2.3V25L33.4,25.2z"/>
<path d="M43.2,18.5c0.4-1.2,1-2.5,0-2.9v-0.1h2.4l-4.3,11.3c-1.1-0.8-1.5-0.9-2-2.2L36.8,18c-0.2-0.9-0.6-1.7-1.3-2.3v-0.1h2.4v0.2
	c0.1,0.5,0.2,1,0.4,1.5l2.6,7.1L43.2,18.5z"/>
<path d="M48.7,25l2.1,0.2c1.1,0.1,2.2-0.3,3-1l0,0l-0.7,2.1h-6.8v-0.1c0.8-0.3,0.7-1.5,0.7-2.2v-6.1c0-0.8,0.1-1.9-0.7-2.3v-0.1h5.2
	c0.3,0,0.5,0,0.8-0.1l0,0v1.9l0,0c-0.5-0.5-1.2-0.7-1.9-0.6c-0.6,0-1.1,0-1.7,0.1v3h1.9c0.2,0,0.5,0,0.7-0.1h0.1v1.7l0,0
	C51.2,21,50.5,21,50,21h-1.2V25z"/>
<path d="M58.6,15.6c2.2,0,3.4,1.1,3.4,2.6c-0.1,1.4-1.2,2.6-2.6,2.9l2.4,3c0.8,0.9,1.7,1.7,2.6,2.3h-1.5c-0.7,0.1-1.4-0.2-1.9-0.8
	l-2-2.5l-1.5-2.3c1.3-0.2,2.8-0.8,2.8-2.3c0-1-0.9-1.8-1.9-1.8c-0.1,0-0.1,0-0.2,0c-0.4,0-0.7,0.1-1.1,0.1v7.3
	c0,0.8-0.1,1.9,0.7,2.2v0.1h-3.1v-0.1c0.8-0.3,0.7-1.5,0.7-2.2v-6.2c0-0.8,0.1-1.9-0.7-2.3v-0.1L58.6,15.6z"/>
<path d="M65.9,21.1v3c0,0.7-0.1,1.9,0.7,2.2v0.1h-3.1v-0.1c0.8-0.3,0.7-1.5,0.7-2.2v-6.2c0-0.7,0.1-1.9-0.7-2.2v-0.1h3.1v0.1
	c-0.8,0.3-0.7,1.5-0.7,2.3v2h5.9v-2c0-0.8,0.1-1.9-0.7-2.3v-0.1h3.1v0.1c-0.8,0.3-0.7,1.5-0.7,2.2v6.2c0,0.7-0.1,1.9,0.7,2.2v0.1
	h-3.1v-0.1c0.8-0.3,0.7-1.5,0.7-2.2v-3L65.9,21.1z"/>
<path d="M78.3,22.3l-0.9,2.3c-0.3,0.9-0.4,1.4,0.3,1.7v0.1h-3v-0.1c0.8-0.5,1.4-1.4,1.6-2.3l2.7-6.8c0.2-0.6,0.5-1.3-0.2-1.5v-0.1
	h2.5l3.4,8.4c0.2,0.9,0.8,1.8,1.6,2.3v0.1h-3.4v-0.1c0.8-0.4,0.7-0.5,0.2-1.7l-0.9-2.3L78.3,22.3z M80.4,17l-1.6,4.1H82L80.4,17z"/>
<path d="M96.7,16.6c0.1-0.3,0.2-0.7,0.2-1l0,0h2.8v0.1c-0.4,0.1-0.5,0.6-0.5,1l1.1,8c0,0.7,0.3,1.3,0.8,1.7v0.1h-3.2v-0.1
	c0.6-0.2,0.7-0.7,0.7-1.2l-0.9-7.9l-3.7,9.4c-0.7-0.5-1.2-1.2-1.4-2l-3.1-7.4l-0.9,7c-0.1,1-0.2,1.7,0.5,2.1v0.1h-2.7v-0.1
	c0.6-0.6,0.9-1.4,0.9-2.3l0.9-6.9c0.1-0.5,0.2-1.1-0.5-1.5v-0.1h2.9l0,0c0,0.3,0.1,0.5,0.2,0.7l3.1,7.2L96.7,16.6z"/>
<path d="M105.9,15.6c2.1,0,3.7,1,3.7,2.9c-0.1,1.8-1.7,3.2-3.5,3.1c0,0,0,0,0,0c-0.4,0-0.8-0.1-1.2-0.2c1.4-0.1,2.9-0.9,2.9-2.5
	s-1-2-2.3-2c-0.4,0-0.8,0-1.1,0.1v7.4c0,0.9,0,1.6,0.9,2.1v0.1h-3.3v-0.1c0.8-0.3,0.7-1.5,0.7-2.2v-6.2c0-0.7,0.1-1.9-0.7-2.3v-0.1
	L105.9,15.6z"/>
<path d="M114.2,24.2c0,0.9,0,1.6,0.8,2.1v0.1h-3.2v-0.1c0.8-0.3,0.7-1.5,0.7-2.2v-7.3h-1.4c-0.7,0-1.4,0.2-1.9,0.6l0,0l0.6-1.9h0.1
	c0.2,0.1,0.4,0.1,0.6,0.1h6.5c0.3,0,0.5,0,0.8-0.1l0,0l-0.5,1.9l0,0c-0.2-0.6-0.9-0.6-1.4-0.6h-1.5L114.2,24.2z"/>
<path d="M129.6,20.9c0,3.2-2.7,5.8-5.9,5.8c0,0-0.1,0-0.1,0c-3.2,0.2-5.8-2.3-6-5.4c0-0.1,0-0.2,0-0.2c0.1-3.2,2.8-5.7,6-5.6
	c0,0,0.1,0,0.1,0c3.1-0.1,5.7,2.3,5.9,5.4C129.6,20.8,129.6,20.8,129.6,20.9z M119.4,20.8c0,2.3,1.6,4.6,4.2,4.6
	c2.2,0,4-1.7,4.1-3.9c0-0.1,0-0.2,0-0.3c0-2.4-1.5-4.7-4.1-4.7c-2.2-0.1-4.1,1.6-4.2,3.8C119.4,20.5,119.4,20.6,119.4,20.8z"/>
<path d="M132.5,24.2c0,0.9,0,1.6,0.9,2.1v0.1h-2.9v-0.1c0.9-0.5,0.9-1.2,0.9-2.1v-6.5c0-0.9,0-1.6-0.9-2.1v-0.1h2.4l0,0
	c0.1,0.2,0.1,0.3,0.2,0.4l0.2,0.3l6,7.5v-6.2c0-0.9,0-1.6-0.9-2.1v-0.1h2.9v0.1c-0.9,0.5-0.9,1.1-0.9,2.1v9.2c-1-0.3-1.8-1-2.4-1.9
	l-5.6-7.1V24.2z"/>
<path d="M88.9,5.3c0,1.8-1.5,3.3-3.3,3.2c0,0,0,0-0.1,0c-1.8,0.1-3.3-1.3-3.4-3.1c0,0,0-0.1,0-0.1c0.1-1.8,1.6-3.2,3.4-3.2
	c0,0,0.1,0,0.1,0C87.3,2.1,88.8,3.4,88.9,5.3C88.9,5.2,88.9,5.2,88.9,5.3z M83.2,5.3c-0.1,1.4,1,2.5,2.4,2.6c1.2,0,2.3-0.9,2.3-2.2
	c0-0.1,0-0.2,0-0.2c0.1-1.3-0.9-2.5-2.2-2.6c0,0,0,0-0.1,0c-1.3,0-2.3,0.9-2.3,2.2C83.2,5.1,83.2,5.2,83.2,5.3L83.2,5.3z"/>
<path d="M90.8,7.1c0,0.4-0.1,1.1,0.4,1.3l0,0h-1.8l0,0c0.5-0.2,0.4-0.9,0.4-1.3V3.6c0-0.4,0-1.1-0.4-1.3l0,0h3c0.1,0,0.3,0,0.4,0
	l0,0v1.1l0,0C92.5,3.1,92.1,3,91.8,3c-0.3,0-0.6,0-0.9,0.1v1.7h1.1c0.1,0,0.3,0,0.4,0l0,0v1l0,0c-0.1-0.3-0.5-0.3-0.8-0.3h-0.7
	L90.8,7.1z"/>
</svg>
